<svg width="485" height="254" viewBox="0 0 485 254" fill="none" xmlns="http://www.w3.org/2000/svg">
<g clip-path="url(#clip0_431_392)">
<path fill-rule="evenodd" clip-rule="evenodd" d="M409.565 94.9265V93.8376C409.565 93.8376 409.605 93.8676 409.625 93.8876C410.016 94.2372 410.036 94.6468 409.595 94.9166H409.575L409.565 94.9265ZM409.565 91.9495C409.876 92.1593 410.376 92.3391 410.907 92.6887C411.647 93.1783 412.448 93.9775 413.409 94.3771C414.37 94.7667 415.481 94.7467 415.651 94.1773C415.821 93.6078 415.061 92.5089 414.15 92.0294C413.239 91.5499 412.168 91.6997 411.387 91.5199C410.606 91.3401 410.106 90.8106 409.725 90.8106C409.675 90.8106 409.615 90.8206 409.575 90.8406V91.9495H409.565ZM409.565 87.8135C410.796 87.9934 412.018 87.8535 412.979 87.5938C414.18 87.2641 415.001 86.7446 415.681 86.3949C416.352 86.0453 416.883 85.8755 416.622 86.375C416.362 86.8745 415.321 88.0433 415.181 89.0423C415.051 90.0414 415.831 90.8705 416.352 91.0604C416.872 91.2602 417.133 90.8206 417.133 90.411C417.133 90.0014 416.872 89.6118 417.023 89.432C417.173 89.2621 417.743 89.3021 418.304 89.5418C418.874 89.7816 419.435 90.2112 419.585 90.0813C419.735 89.9514 419.475 89.2521 419.125 88.6927C418.774 88.1232 418.344 87.6937 418.514 87.2541C418.684 86.8245 419.475 86.385 419.645 85.9254C419.815 85.4659 419.385 84.9863 418.754 84.5368C418.124 84.0772 417.293 83.6477 416.162 82.4688C415.031 81.3 413.589 79.3818 413.179 78.5627C412.768 77.7335 413.379 77.9932 414.16 78.1331C414.941 78.2629 415.902 78.2629 416.732 78.7824C417.563 79.3019 418.254 80.3509 419.405 80.8504C420.556 81.3499 422.168 81.31 423.669 81.8894C425.171 82.4788 426.562 83.6876 427.453 84.6467C428.344 85.6057 428.734 86.295 429.435 86.6447C430.136 86.9944 431.137 86.9944 431.657 87.4239C432.178 87.8535 432.228 88.7226 432.918 89.5518C433.609 90.381 434.96 91.1603 436.272 91.5299C437.573 91.8995 438.844 91.8596 439.775 92.3291C440.716 92.8086 441.317 93.8076 442.218 94.2372C443.108 94.6668 444.29 94.5369 445 94.9965C445.721 95.456 445.981 96.495 446.962 97.3442C447.943 98.1933 449.635 98.8427 450.225 99.2323C450.816 99.6219 450.296 99.7518 448.394 99.3022C446.502 98.8427 443.239 97.8037 441.207 96.8946C439.185 95.9855 438.404 95.1963 437.393 95.1963C436.382 95.1963 435.171 95.9755 434.63 96.8646C434.09 97.7538 434.22 98.7528 434.89 99.2723C435.561 99.7918 436.782 99.8417 437.373 100.101C437.963 100.361 437.913 100.841 439.024 101.08C440.136 101.32 442.398 101.32 443.699 101.15C445 100.981 445.351 100.631 446.242 100.911C447.132 101.19 448.574 102.109 449.895 102.689C451.227 103.278 452.438 103.538 453.309 104.147C454.179 104.757 454.7 105.716 454.81 106.385C454.92 107.055 454.61 107.454 455.07 108.014C455.531 108.583 456.742 109.312 457.643 109.532C458.534 109.752 459.104 109.442 460.105 110.102C461.106 110.751 462.548 112.359 463.939 113.618C465.33 114.877 466.682 115.786 467.312 115.986C467.943 116.186 467.853 115.656 467.573 115.117C467.292 114.577 466.812 114.008 467.182 113.788C467.553 113.568 468.774 113.698 469.665 114.437C470.556 115.177 471.126 116.525 471.927 117.784C472.728 119.043 473.779 120.222 475.26 121.82C476.742 123.428 478.654 125.466 479.895 126.885C481.136 128.294 481.697 129.083 481.937 129.732C482.177 130.382 482.087 130.901 482.267 131.161C482.437 131.421 482.878 131.421 482.598 130.292C482.317 129.163 481.316 126.905 480.115 125.207C478.914 123.508 477.523 122.38 476.482 120.691C475.44 118.993 474.74 116.735 473.609 114.787C472.478 112.829 470.906 111.181 469.795 109.532C468.684 107.884 468.033 106.225 466.642 104.647C465.25 103.059 463.118 101.54 461.196 100.131C459.284 98.7228 457.583 97.4141 455.881 95.5659C454.179 93.7177 452.488 91.3301 450.416 89.0024C448.344 86.6747 445.911 84.4169 444.059 82.7285C442.208 81.0302 440.946 79.9013 440.356 78.9723C439.765 78.0432 439.855 77.3039 438.314 76.0351C436.772 74.7764 433.589 72.9981 431.347 71.2299C429.105 69.4716 427.803 67.7333 427.123 66.9041C426.452 66.0749 426.402 66.1649 426.452 66.4945C426.492 66.8242 426.622 67.3837 425.781 67.2338C424.94 67.084 423.109 66.2148 421.757 65.1958C420.406 64.1768 419.535 62.998 418.454 62.4785C417.363 61.959 416.062 62.0889 415.011 61.5194C413.97 60.95 413.179 59.6912 412.919 58.7621C412.658 57.8331 412.919 57.2237 412.048 56.2846C411.537 55.7451 410.646 55.0858 409.525 54.3365V87.7836L409.565 87.8135ZM409.565 54.3665V87.8135C409.275 87.7736 408.985 87.7136 408.694 87.6337C407.173 87.2241 405.691 86.2651 404.54 86.0952C403.389 85.9254 402.558 86.5248 401.467 86.375C400.376 86.2251 399.025 85.306 397.764 84.9664C396.502 84.6167 395.321 84.8365 394.911 85.4259C394.5 86.0153 394.841 86.9644 394.63 87.6237C394.41 88.2731 393.63 88.6227 392.518 88.7326C391.407 88.8425 389.976 88.7127 389.866 88.1432C389.756 87.5738 390.977 86.5748 391.277 85.7356C391.577 84.8864 390.977 84.1971 390.647 83.4379C390.316 82.6786 390.276 81.8494 389.666 81.3099C389.055 80.7705 387.884 80.5107 387.143 80.0112C386.402 79.5117 386.102 78.7724 385.201 78.3429C384.31 77.9133 382.829 77.7734 382.128 78.0631C381.427 78.3429 381.518 79.0422 382.038 79.6316C382.559 80.221 383.52 80.7005 384.17 81.1701C384.821 81.6496 385.171 82.1291 384.711 82.0792C384.25 82.0292 382.989 81.4698 382.208 81.4298C381.427 81.3899 381.117 81.8594 381.267 82.5387C381.417 83.2081 382.028 84.0772 382.709 84.9963C383.379 85.9054 384.12 86.8645 384.17 87.5638C384.21 88.2631 383.56 88.6927 382.799 88.8026C382.038 88.9125 381.167 88.6927 380.076 88.9324C379.786 88.9924 379.485 89.0923 379.175 89.1922V32.498C380.186 32.8776 381.317 33.2572 381.868 33.6868C382.649 34.2962 382.258 34.9855 383.94 36.2743C385.612 37.553 389.355 39.4212 391.427 40.6799C393.499 41.9387 393.89 42.5881 393.539 42.7179C393.189 42.8478 392.108 42.4582 391.127 42.2884C390.146 42.1185 389.275 42.1585 389.976 43.1575C390.677 44.1565 392.939 46.1146 394.701 47.0437C396.462 47.9728 397.724 47.8928 399.726 48.6921C401.728 49.4913 404.47 51.1896 406.843 52.6681C407.834 53.2875 408.754 53.867 409.565 54.3964V54.3665ZM409.565 90.8506V91.9595C409.435 91.8795 409.345 91.7896 409.285 91.6897C409.105 91.39 409.275 90.9704 409.565 90.8506ZM409.565 93.8276C409.165 93.4979 408.434 93.2482 407.834 93.2082C407.203 93.1783 406.702 93.3881 405.541 93.438C404.38 93.478 402.548 93.3481 401.387 92.9685C400.226 92.5888 399.726 91.9595 398.745 91.5898C397.764 91.2202 396.302 91.1103 394.951 91.2102C393.589 91.3101 392.328 91.6098 392.398 91.8196C392.468 92.0294 393.86 92.1393 394.901 92.7487C395.942 93.3681 396.642 94.497 397.684 94.9865C398.725 95.476 400.126 95.3262 401.177 95.5659C402.228 95.8057 402.949 96.4351 403.95 96.9046C404.951 97.3741 406.232 97.6738 406.843 97.4041C407.453 97.1344 407.383 96.2852 407.814 95.7957C408.234 95.3162 409.125 95.1763 409.575 94.9166V93.8276H409.565ZM379.195 158.214V137.635C379.526 137.065 379.836 136.486 380.116 136.106C380.607 135.447 381.017 135.397 381.127 135.816C381.237 136.226 381.037 137.095 381.197 137.764C381.347 138.424 381.848 138.883 381.958 139.533C382.068 140.182 381.788 141.031 381.487 141.651C381.197 142.27 380.887 142.66 381.137 143.808C381.387 144.957 382.188 146.875 382.378 148.084C382.559 149.303 382.128 149.823 382.218 150.602C382.308 151.381 382.919 152.43 383.099 153.099C383.279 153.769 383.049 154.078 382.999 154.398C382.959 154.728 383.109 155.067 382.799 155.267C382.499 155.467 381.728 155.507 381.257 155.936C380.777 156.366 380.587 157.195 379.866 157.785C379.676 157.935 379.455 158.074 379.195 158.204V158.214ZM379.195 131.181C379.936 131.341 380.837 131.401 381.508 131.78C382.348 132.27 382.799 133.289 383.449 133.828C384.09 134.368 384.921 134.438 385.561 134.707C386.202 134.977 386.663 135.457 386.843 135.986C387.023 136.516 386.943 137.105 387.013 137.615C387.093 138.124 387.333 138.564 387.754 138.963C388.174 139.363 388.785 139.732 389.155 139.712C389.525 139.692 389.656 139.283 389.415 138.913C389.175 138.544 388.564 138.214 388.184 137.784C387.804 137.355 387.654 136.805 388.014 136.426C388.374 136.046 389.245 135.826 389.555 135.567C389.876 135.307 389.636 134.997 389.586 134.558C389.545 134.108 389.696 133.529 389.836 132.929C389.976 132.33 390.106 131.72 389.866 131.391C389.626 131.051 389.015 130.991 388.585 130.392C388.154 129.792 387.884 128.663 387.323 128.024C386.753 127.385 385.882 127.235 384.831 126.995C383.78 126.755 382.539 126.426 382.008 125.986C381.487 125.536 381.678 124.977 381.247 124.527C380.817 124.078 379.746 123.758 379.335 123.119C379.275 123.029 379.225 122.929 379.195 122.819V125.896C379.746 126.446 380.486 127.005 380.877 127.435C381.327 127.934 381.277 128.264 381.107 128.693C380.937 129.123 380.627 129.672 379.946 129.802C379.726 129.842 379.465 129.842 379.205 129.832V131.191L379.195 131.181ZM379.195 93.438V91.42C379.526 91.4899 379.816 91.5998 380.006 91.7497C380.496 92.1293 380.326 92.7587 379.666 93.1982C379.526 93.2882 379.365 93.3681 379.195 93.438ZM393.87 181.611H391.287C390.687 181.431 390.046 181.232 389.405 181.192C388.134 181.102 386.873 181.621 385.542 181.361C384.21 181.102 382.819 180.063 381.768 179.573C380.717 179.084 379.996 179.154 379.946 178.874C379.906 178.604 380.537 177.995 381.598 177.905C382.669 177.815 384.17 178.255 385.361 178.634C386.562 179.014 387.453 179.343 388.084 179.274C388.715 179.204 389.085 178.754 389.576 178.734C390.066 178.714 390.677 179.124 391.087 179.014C391.497 178.904 391.718 178.275 391.938 177.545C392.158 176.816 392.368 175.997 392.779 175.707C393.179 175.427 393.77 175.687 393.76 176.237C393.75 176.786 393.139 177.635 393.269 178.374C393.399 179.114 394.27 179.743 394.39 180.442C394.46 180.862 394.26 181.312 393.87 181.601V181.611ZM391.257 136.106C390.917 136.226 390.807 136.635 391.377 137.145C391.948 137.654 393.179 138.264 393.89 138.314C394.6 138.364 394.771 137.864 395.131 137.934C395.491 138.004 396.032 138.634 396.342 138.703C396.642 138.783 396.713 138.304 396.442 137.844C396.172 137.385 395.561 136.955 395.331 136.556C395.101 136.156 395.251 135.786 394.991 135.307C394.731 134.827 394.06 134.238 393.639 134.058C393.229 133.878 393.069 134.088 393.239 134.358C393.399 134.627 393.88 134.957 394.01 135.337C394.14 135.716 393.92 136.156 393.65 136.326C393.379 136.496 393.049 136.416 392.608 136.286C392.158 136.156 391.597 135.986 391.257 136.106ZM379.195 32.468V89.1622C378.314 89.4619 377.313 89.8515 376.222 89.9015C375.421 89.9415 374.571 89.7916 373.74 89.6517V33.2073C374.631 33.4071 374.901 33.3372 374.941 33.1673C375.001 32.9276 374.561 32.478 373.74 31.7387V28.6718C374.18 28.9914 374.571 29.3011 374.911 29.5709C376.563 30.8996 376.873 31.459 378.004 32.0085C378.344 32.1683 378.755 32.3282 379.185 32.498L379.195 32.468ZM379.195 91.42V93.438C378.545 93.7077 377.714 93.8376 377.183 93.7377C376.523 93.6178 376.342 93.1283 376.382 92.8386C376.412 92.5489 376.653 92.459 376.723 92.419C376.793 92.3691 376.693 92.3591 376.743 92.1493C376.793 91.9395 376.983 91.5199 377.664 91.38C378.084 91.2901 378.675 91.3101 379.195 91.42ZM379.195 122.819V125.896C379.105 125.806 379.025 125.716 378.945 125.626C378.404 124.997 378.244 124.408 377.684 124.148C377.113 123.888 376.142 123.948 375.652 123.748C375.161 123.538 375.161 123.069 375.331 122.829C375.502 122.589 375.852 122.589 376.112 122.34C376.372 122.09 376.543 121.59 376.443 121.171C376.332 120.751 375.942 120.401 375.752 120.052C375.572 119.702 375.592 119.353 375.752 119.233C375.912 119.113 376.222 119.223 376.853 119.482C377.484 119.742 378.444 120.152 378.805 120.841C379.115 121.43 378.985 122.21 379.195 122.819ZM379.195 129.822V131.181C379.005 131.141 378.815 131.091 378.655 131.021C377.864 130.701 377.494 130.032 377.834 129.832C378.074 129.702 378.635 129.782 379.195 129.812V129.822ZM379.195 137.635V158.214C378.495 158.564 377.604 158.804 376.773 159.023C375.642 159.313 374.621 159.553 373.78 159.823H373.75V135.417C373.93 135.666 374.12 135.836 374.2 136.016C374.3 136.246 374.21 136.486 374.441 136.645C374.671 136.805 375.211 136.895 375.582 137.415C375.952 137.934 376.152 138.893 376.603 139.283C377.063 139.673 377.774 139.503 378.424 138.773C378.695 138.464 378.955 138.054 379.205 137.625L379.195 137.635ZM373.74 133.848V130.492C374.19 130.691 374.661 130.881 375.011 131.121C375.632 131.531 375.852 132.08 375.762 132.54C375.672 133.009 375.281 133.399 374.791 133.579C374.431 133.718 374.02 133.738 373.73 133.848H373.74ZM373.74 121.81V120.022C373.82 120.072 373.89 120.122 373.95 120.172C374.27 120.431 374.35 120.721 374.41 121.011C374.461 121.301 374.491 121.58 374.19 121.72C374.08 121.77 373.91 121.81 373.75 121.81H373.74ZM373.74 118.124V117.315C373.81 117.394 373.88 117.464 373.92 117.544C374.04 117.774 373.96 117.994 373.74 118.124ZM373.74 116.585V115.446C373.75 115.386 373.75 115.326 373.74 115.277V114.447C373.89 114.397 374.07 114.407 374.18 114.527C374.35 114.727 374.3 115.237 374.571 115.566C374.841 115.896 375.421 116.046 375.361 116.306C375.301 116.565 374.591 116.915 374.17 116.875C373.97 116.855 373.83 116.735 373.74 116.585ZM373.74 110.281V109.512C373.74 109.512 373.74 109.432 373.74 109.382V97.534C373.74 97.534 373.81 97.474 373.84 97.4441C374.25 97.0844 374.491 96.8147 374.651 96.6648C374.811 96.515 374.901 96.465 375.131 96.465C375.361 96.465 375.742 96.505 376.092 96.6948C376.432 96.8846 376.743 97.2243 376.883 97.7038C377.033 98.1833 377.023 98.8027 376.703 99.0625C376.382 99.3322 375.752 99.2423 375.371 99.4421C374.991 99.6419 374.881 100.131 375.221 100.621C375.562 101.11 376.372 101.6 376.643 102.169C376.913 102.749 376.653 103.408 376.723 103.968C376.793 104.527 377.183 104.987 377.133 105.376C377.093 105.776 376.613 106.106 376.312 106.155C376.022 106.205 375.912 105.966 375.582 105.766C375.251 105.566 374.691 105.416 374.32 105.416C373.94 105.416 373.75 105.556 373.89 105.936C374.03 106.315 374.511 106.935 374.901 107.155C375.291 107.374 375.582 107.204 375.892 107.254C376.212 107.304 376.543 107.594 376.563 107.864C376.583 108.144 376.292 108.413 376.062 108.793C375.832 109.183 375.672 109.682 375.281 109.982C374.891 110.281 374.29 110.391 373.95 110.341C373.85 110.321 373.78 110.291 373.73 110.251L373.74 110.281ZM373.74 28.6518V31.7188C373.6 31.5889 373.45 31.449 373.279 31.3092C373.099 31.1393 372.899 30.9695 372.689 30.7797V27.9025C373.059 28.1523 373.409 28.412 373.74 28.6518ZM373.74 33.1973V89.6418C373.379 89.5818 373.029 89.5219 372.689 89.4819V32.9176C373.109 33.0375 373.45 33.1274 373.74 33.1973ZM373.74 97.524V109.372C373.73 109.242 373.66 109.083 373.5 108.893C373.319 108.683 373.009 108.423 372.699 108.174V105.406C372.699 105.336 372.699 105.276 372.699 105.206V102.399C372.699 102.289 372.699 102.179 372.699 102.07V98.6229C372.899 98.2633 373.369 97.8736 373.75 97.534L373.74 97.524ZM373.74 109.502V110.271C373.61 110.172 373.6 110.012 373.64 109.852C373.67 109.742 373.72 109.632 373.74 109.502ZM373.74 114.437V115.257C373.69 115.027 373.45 114.787 373.52 114.607C373.55 114.537 373.64 114.477 373.74 114.437ZM373.74 115.436V116.575C373.64 116.405 373.61 116.196 373.61 116.026C373.61 115.776 373.71 115.606 373.74 115.436ZM373.74 117.315C373.49 117.055 373.079 116.795 372.859 116.595C372.789 116.535 372.739 116.475 372.699 116.425V118.144C372.929 118.214 373.159 118.244 373.359 118.224C373.52 118.214 373.65 118.174 373.75 118.114V117.305L373.74 117.315ZM373.74 120.022V121.81C373.47 121.81 373.189 121.73 373.079 121.5C372.899 121.141 373.149 120.421 372.779 120.042C372.759 120.012 372.729 119.992 372.699 119.972V119.472C373.089 119.662 373.47 119.832 373.75 120.012L373.74 120.022ZM373.74 130.492V133.848C373.64 133.888 373.55 133.938 373.49 134.008C373.259 134.268 373.389 134.807 373.6 135.197C373.64 135.277 373.69 135.347 373.74 135.417V159.843C373.359 159.973 373.009 160.102 372.689 160.192V129.872C372.689 129.872 372.769 129.942 372.809 129.982C373.049 130.172 373.379 130.342 373.73 130.502L373.74 130.492ZM372.699 27.9025V30.7797C372.338 30.46 371.938 30.1103 371.528 29.7607V27.1133C371.928 27.373 372.318 27.6428 372.699 27.9025ZM372.699 32.9176V89.4819C372.368 89.4419 372.048 89.422 371.748 89.432C371.678 89.432 371.598 89.432 371.528 89.4419V32.5479C371.968 32.6878 372.358 32.8177 372.699 32.9076V32.9176ZM372.699 98.6129V102.06C372.699 101.92 372.669 101.77 372.629 101.63C372.499 101.15 372.198 100.691 372.208 100.381C372.208 100.071 372.529 99.9116 372.599 99.6619C372.669 99.4121 372.479 99.0725 372.679 98.6729C372.679 98.6529 372.699 98.6329 372.709 98.6129H372.699ZM372.699 102.389V105.196C372.699 105.136 372.689 105.067 372.679 104.997C372.609 104.587 372.398 104.118 372.378 103.798C372.348 103.478 372.509 103.308 372.609 102.959C372.659 102.799 372.699 102.599 372.709 102.379L372.699 102.389ZM372.699 105.406V108.174C372.318 107.874 371.928 107.564 371.688 107.314C371.618 107.244 371.568 107.174 371.528 107.115V106.495C371.528 106.495 371.578 106.455 371.608 106.435C371.848 106.275 372.228 106.205 372.459 105.996C372.609 105.856 372.679 105.656 372.699 105.416V105.406ZM372.699 116.425V118.144C372.348 118.044 371.988 117.864 371.758 117.634C371.658 117.534 371.578 117.434 371.528 117.325V116.505C371.528 116.505 371.538 116.485 371.548 116.475C371.748 116.186 372.188 116.116 372.388 116.146C372.549 116.176 372.569 116.266 372.699 116.425ZM372.699 119.482V119.982C372.428 119.772 371.958 119.672 371.528 119.562V118.823C371.818 119.023 372.188 119.223 372.539 119.402C372.589 119.432 372.649 119.452 372.699 119.482ZM372.699 129.872V160.192C372.338 160.302 372.008 160.372 371.688 160.342C371.628 160.342 371.578 160.322 371.528 160.312V128.404C371.608 128.444 371.678 128.493 371.738 128.553C372.148 128.903 372.258 129.443 372.699 129.882V129.872ZM371.518 113.668V113.298C371.568 113.338 371.608 113.378 371.618 113.428C371.638 113.508 371.598 113.588 371.518 113.668ZM371.518 27.1133V29.7607C371.337 29.6108 371.167 29.461 370.987 29.3111V26.7736C371.167 26.8835 371.347 27.0034 371.518 27.1133ZM371.518 32.5579V89.4519C371.337 89.4619 371.157 89.4919 370.987 89.5219V32.3781C371.177 32.438 371.347 32.498 371.518 32.5579ZM371.518 106.485V107.105C371.317 106.815 371.367 106.615 371.518 106.485ZM371.518 113.288V113.658C371.428 113.738 371.297 113.818 371.117 113.878C371.077 113.898 371.027 113.908 370.977 113.918V113.169C371.197 113.139 371.398 113.199 371.508 113.278L371.518 113.288ZM371.518 116.505V117.325C371.367 117.025 371.387 116.715 371.518 116.505ZM371.518 118.813V119.552C371.327 119.502 371.137 119.452 370.987 119.392V118.373C370.987 118.373 371.057 118.453 371.107 118.493C371.217 118.593 371.357 118.703 371.528 118.813H371.518ZM371.518 128.404V160.312C371.337 160.272 371.157 160.202 370.987 160.132V128.194C371.187 128.244 371.367 128.314 371.518 128.404ZM370.987 26.7736V29.3111C370.356 28.7916 369.696 28.2821 369.065 27.8526C368.505 27.4729 367.954 27.1433 367.434 26.8635V24.8755C367.584 24.9354 367.734 25.0054 367.884 25.0753C368.855 25.5149 369.936 26.1243 370.987 26.7736ZM370.987 32.3781V89.5219C369.986 89.7017 369.135 90.1113 368.254 90.0414C367.984 90.0214 367.704 89.9514 367.434 89.8615V31.1293C368.705 31.5889 369.886 31.9985 370.847 32.3282L370.987 32.3781ZM370.987 113.179V113.928C370.657 114.018 370.236 114.048 369.836 113.968C369.375 113.878 368.935 113.648 368.515 113.548C368.094 113.448 367.694 113.468 367.534 113.578C367.374 113.688 367.444 113.898 367.644 114.068C367.844 114.238 368.154 114.387 368.214 114.617C368.264 114.847 368.064 115.177 367.714 115.067C367.634 115.037 367.544 114.987 367.444 114.927V111.53C367.444 111.53 367.504 111.6 367.534 111.63C367.764 111.81 368.234 111.75 368.485 111.96C368.735 112.16 368.765 112.619 368.975 112.939C369.185 113.259 369.576 113.458 369.946 113.448C370.316 113.438 370.667 113.219 370.977 113.179H370.987ZM370.987 118.373V119.392C370.987 119.392 370.927 119.362 370.897 119.353C370.376 119.103 370.316 118.653 370.366 118.353C370.407 118.054 370.547 117.884 370.647 117.924C370.727 117.954 370.787 118.134 370.987 118.373ZM370.987 128.184V160.122C370.627 159.963 370.256 159.773 369.826 159.673C369.195 159.533 368.425 159.593 367.434 159.273V129.363C367.614 129.283 367.794 129.163 367.974 129.043C368.495 128.693 369.085 128.284 369.776 128.154C370.166 128.084 370.597 128.094 370.977 128.194L370.987 128.184ZM367.434 162.86V160.722C368.074 160.862 369.025 161.341 369.155 161.821C369.295 162.31 368.585 162.81 367.704 162.86C367.614 162.86 367.524 162.86 367.434 162.86ZM367.434 122.409V121.72C367.834 122 368.034 122.19 367.914 122.3C367.844 122.36 367.684 122.39 367.434 122.409ZM367.434 106.645V106.245C367.504 106.425 367.494 106.545 367.434 106.645ZM367.434 102.799V102.639C367.574 102.589 368.024 102.679 368.505 102.599C369.035 102.509 369.596 102.199 370.056 102.139C370.517 102.08 370.857 102.259 370.837 102.489C370.807 102.719 370.407 102.989 369.866 103.138C369.325 103.288 368.635 103.318 368.134 103.188C367.794 103.099 367.544 102.929 367.444 102.799H367.434ZM367.434 24.8855V26.8735C366.553 26.394 365.742 26.0144 365.011 25.6447C364.821 25.5448 364.641 25.4549 364.461 25.355V24.1162C365.191 24.1662 366.212 24.396 367.424 24.8855H367.434ZM367.434 31.1293V89.8615C366.613 89.5918 365.802 89.1223 365.101 89.0823C364.881 89.0723 364.671 89.1023 364.471 89.1622V30.0804C365.482 30.44 366.483 30.7897 367.434 31.1293ZM367.434 102.639V102.799C367.384 102.739 367.374 102.689 367.404 102.659C367.404 102.659 367.424 102.639 367.434 102.639ZM367.434 106.245V106.645C367.434 106.645 367.384 106.715 367.353 106.745C367.213 106.885 366.973 106.975 366.783 106.955C366.593 106.935 366.463 106.795 366.092 106.845C365.712 106.895 365.101 107.135 364.741 107.394C364.621 107.484 364.531 107.574 364.461 107.664V104.078C364.521 104.078 364.581 104.078 364.641 104.088C365.191 104.157 365.812 104.527 366.312 104.937C366.813 105.346 367.193 105.806 367.363 106.116C367.384 106.165 367.414 106.205 367.424 106.245H367.434ZM367.434 111.54V114.937C367.133 114.727 366.773 114.367 366.493 114.158C366.122 113.888 365.872 113.898 365.872 114.108C365.872 114.317 366.122 114.717 366.102 114.957C366.082 115.197 365.802 115.287 365.822 115.526C365.842 115.756 366.152 116.136 366.433 116.425C366.713 116.715 366.953 116.905 366.843 117.215C366.733 117.514 366.272 117.934 365.872 117.944C365.462 117.954 365.101 117.564 364.991 117.225C364.881 116.885 365.011 116.605 364.921 116.315C364.861 116.106 364.671 115.886 364.471 115.796V112.859C364.711 112.799 364.921 112.729 365.041 112.619C365.311 112.339 364.981 111.78 364.891 111.44C364.801 111.101 364.961 110.991 365.201 110.861C365.442 110.721 365.782 110.561 366.152 110.521C366.523 110.481 366.913 110.551 367.103 110.801C367.273 111.011 367.293 111.34 367.444 111.54H367.434ZM367.434 121.72V122.409C366.883 122.439 365.952 122.37 364.881 122.26C364.741 122.25 364.601 122.23 364.461 122.22V119.832C365.051 120.192 365.602 120.561 366.092 120.871C366.633 121.211 367.093 121.5 367.424 121.73L367.434 121.72ZM367.434 129.353V159.263C367.303 159.223 367.173 159.173 367.033 159.113C366.162 158.744 365.131 158.044 364.471 157.315V127.325C364.541 127.365 364.621 127.415 364.701 127.485C365.191 127.894 365.862 128.923 366.433 129.283C366.793 129.522 367.113 129.493 367.434 129.343V129.353ZM367.434 160.732V162.87C366.613 162.83 365.732 162.46 365.392 161.941C365.011 161.361 365.301 160.612 365.552 160.432C365.792 160.252 365.992 160.632 366.242 160.712C366.483 160.802 366.783 160.592 367.414 160.732H367.444H367.434ZM364.471 24.1063V25.345C363.6 24.8655 363.019 24.4359 363.37 24.2261C363.54 24.1162 363.92 24.0663 364.471 24.1063ZM364.471 30.0804C362.208 29.2812 359.926 28.5119 358.184 28.0324C354.641 27.0534 353.37 27.3131 351.498 26.6038C349.626 25.8845 347.143 24.1962 344.841 23.7966C342.539 23.4069 340.397 24.316 338.965 24.316C337.534 24.316 336.793 23.4069 336.373 23.387C335.962 23.367 335.872 24.2361 336.093 25.0853C336.313 25.9345 336.833 26.7536 336.243 27.1732C335.652 27.5828 333.96 27.5828 333.07 27.2631C332.179 26.9335 332.089 26.2841 332.459 25.5249C332.829 24.7656 333.66 23.8965 333.81 23.327C333.96 22.7576 333.44 22.4978 333.35 22.2381C333.26 21.9783 333.61 21.7186 333.31 21.3889C333.01 21.0593 332.049 20.6696 331.058 20.29C330.067 19.9104 329.046 19.5407 328.405 19.6406C327.764 19.7405 327.504 20.3 327.044 20.5997C326.583 20.8894 325.933 20.9194 325.742 21.299C325.542 21.6786 325.812 22.4179 325.492 22.8775C325.172 23.337 324.281 23.5068 323.37 22.8475C322.459 22.1881 321.518 20.6896 319.546 19.5108C318.225 18.7216 316.443 18.0822 314.892 17.5427V65.7653C315.983 66.5345 316.593 67.1938 316.383 67.8232C316.163 68.4926 315.022 69.1219 314.892 69.6814V69.8812C314.892 69.8812 314.912 69.9411 314.922 69.9611C315.252 70.5905 317.424 71.11 318.465 72.2389C319.506 73.3678 319.426 75.1061 319.356 76.6445C319.286 78.183 319.246 79.5317 319.446 80.4008C319.646 81.27 320.077 81.6596 320.277 82.249C320.477 82.8384 320.427 83.6177 320.948 83.7476C321.468 83.8774 322.559 83.3579 323.17 83.5477C323.78 83.7475 323.91 84.6567 324.171 85.346C324.431 86.0453 324.821 86.5148 325.392 86.4349C325.963 86.345 326.693 85.6956 326.803 85.1961C326.913 84.6966 326.393 84.347 326.133 83.9374C325.872 83.5278 325.872 83.0482 325.742 82.6386C325.612 82.229 325.352 81.8794 325.542 81.21C325.742 80.5407 326.393 79.5417 326.673 78.8224C326.954 78.1031 326.873 77.6735 327.434 77.3039C328.005 76.9342 329.216 76.6345 330.547 76.6945C331.878 76.7644 333.31 77.194 334.291 76.8943C335.272 76.5946 335.792 75.5456 336.463 75.3258C337.134 75.1061 337.964 75.7155 338.875 76.0851C339.786 76.4547 340.787 76.5846 341.448 76.6545C342.098 76.7245 342.409 76.7245 342.929 77.3239C343.45 77.9333 344.191 79.1521 344.651 79.9713C345.111 80.8005 345.282 81.23 345.061 81.7495C344.841 82.269 344.231 82.8784 344.211 83.3779C344.191 83.8774 344.751 84.267 345.342 84.1172C345.932 83.9673 346.543 83.268 346.993 83.3779C347.454 83.4878 347.754 84.3969 347.794 85.2061C347.834 86.0053 347.624 86.7046 347.834 87.2741C348.054 87.8435 348.705 88.2731 348.445 88.7926C348.185 89.3121 347.003 89.9215 346.403 90.6807C345.792 91.44 345.752 92.3491 345.882 93.1783C346.012 94.0074 346.313 94.7467 346.473 95.476C346.623 96.2153 346.623 96.9546 346.713 97.7338C346.803 98.513 346.973 99.3422 346.933 99.7718C346.893 100.211 346.633 100.251 346.433 100.012C346.233 99.7718 346.102 99.2523 345.452 98.2333C344.801 97.2143 343.62 95.6958 342.729 95.0165C341.838 94.3471 341.228 94.5169 341.208 95.0364C341.188 95.5559 341.748 96.4251 341.948 97.2742C342.149 98.1234 341.968 98.9426 342.058 100.012C342.149 101.08 342.489 102.379 342.799 103.418C343.099 104.457 343.37 105.246 344.191 105.936C344.761 106.415 345.602 106.855 346.323 107.404C346.433 107.324 346.493 107.464 346.683 107.534C346.873 107.614 347.194 107.634 347.444 107.864C347.694 108.104 347.884 108.553 348.165 108.893C348.455 109.232 348.845 109.442 349.165 109.742C349.486 110.042 349.736 110.421 350.006 110.661C350.277 110.901 350.557 110.991 350.617 110.861C350.637 110.811 350.627 110.731 350.597 110.621C350.507 110.441 350.427 110.241 350.347 110.042C349.936 108.973 349.586 107.634 349.105 106.765C348.625 105.896 348.014 105.506 347.694 104.967C347.364 104.427 347.324 103.728 347.304 103.168C347.284 102.599 347.284 102.169 347.544 101.8C347.804 101.43 348.325 101.13 348.505 100.431C348.675 99.7318 348.505 98.6529 348.134 97.6738C347.764 96.6948 347.204 95.8257 347.043 94.7667C346.893 93.6978 347.154 92.439 347.654 91.7297C348.154 91.0204 348.895 90.8406 349.766 91.0604C350.637 91.2801 351.638 91.8895 352.269 92.7287C352.899 93.5779 353.159 94.6668 353.099 95.3761C353.029 96.0954 352.639 96.4451 352.989 96.485C353.34 96.525 354.431 96.2652 355.692 96.3951C356.953 96.525 358.395 97.0445 359.235 96.6948C360.086 96.3452 360.347 95.1263 360.036 93.9975C359.736 92.8686 358.865 91.8296 358.685 90.7207C358.515 89.6118 359.035 88.4429 359.756 87.9234C360.477 87.404 361.388 87.5338 361.778 87.9434C362.168 88.353 362.038 89.0523 362.108 89.5319C362.178 90.0114 362.439 90.2711 362.939 90.0314C363.319 89.8515 363.84 89.382 364.481 89.1822V30.0804H364.471ZM364.471 104.068V107.654C364.34 107.834 364.3 108.024 364.31 108.213C364.331 108.503 364.471 108.793 364.341 108.933C364.21 109.073 363.81 109.043 363.56 109.312C363.32 109.582 363.229 110.132 362.969 110.441C362.709 110.751 362.268 110.821 361.928 110.951C361.578 111.081 361.318 111.28 360.937 111.44C360.557 111.6 360.056 111.73 359.716 111.96C359.376 112.19 359.185 112.509 358.815 112.529C358.435 112.549 357.874 112.249 357.324 112.13C356.773 112 356.242 112.05 355.862 111.74C355.482 111.44 355.272 110.781 354.951 110.291C354.631 109.802 354.21 109.472 354.01 108.923C353.81 108.373 353.85 107.584 353.78 106.915C353.71 106.245 353.55 105.696 353.66 105.196C353.77 104.707 354.15 104.267 354.441 103.968C354.731 103.668 354.921 103.488 355.041 103.358C355.151 103.218 355.191 103.128 355.322 103.348C355.452 103.568 355.682 104.118 356.092 104.227C356.503 104.337 357.103 104.008 357.614 103.928C358.124 103.848 358.545 104.008 358.875 104.018C359.205 104.028 359.426 103.888 359.806 103.798C360.186 103.708 360.717 103.678 361.298 103.798C361.878 103.918 362.499 104.187 363.049 104.207C363.54 104.227 363.99 104.048 364.471 104.058V104.068ZM364.471 112.859V115.796C364.401 115.766 364.331 115.746 364.26 115.756C363.99 115.776 363.77 116.116 363.54 116.106C363.309 116.096 363.079 115.736 362.849 115.796C362.619 115.856 362.379 116.335 362.128 116.435C361.888 116.535 361.638 116.256 361.518 115.956C361.408 115.666 361.428 115.356 361.698 115.187C361.968 115.017 362.489 114.987 362.759 114.617C363.029 114.258 363.039 113.558 363.47 113.219C363.72 113.019 364.12 112.939 364.471 112.849V112.859ZM364.471 119.832C363.63 119.313 362.719 118.783 361.818 118.373C360.297 117.674 358.815 117.334 357.854 116.675C356.893 116.026 356.463 115.067 355.522 114.347C354.591 113.628 353.149 113.149 352.188 112.519C351.988 112.389 351.808 112.249 351.648 112.11C351.558 112.06 351.468 112.02 351.388 112.01C351.147 111.98 350.957 112.14 350.697 112.19C350.437 112.24 350.106 112.16 349.936 112.21C349.756 112.259 349.726 112.449 349.826 112.629C349.886 112.739 349.996 112.859 350.096 112.959C350.617 113.378 351.167 113.778 351.628 114.188C352.539 115.017 353.109 115.926 353.93 116.425C354.761 116.925 355.842 117.015 356.843 117.814C357.844 118.613 358.755 120.142 360.126 121.011C361.378 121.8 363.009 122.05 364.451 122.21V119.822L364.471 119.832ZM364.471 127.335V157.325C364.23 157.065 364.05 156.796 363.93 156.536C363.5 155.557 364.1 154.708 364.11 153.809C364.12 152.909 363.53 151.95 363.37 151.201C363.209 150.452 363.47 149.912 363.259 149.663C363.049 149.413 362.379 149.453 362.148 149.073C361.918 148.694 362.138 147.894 361.888 147.065C361.638 146.236 360.917 145.397 359.856 144.548C358.785 143.699 357.374 142.849 356.403 142.56C355.432 142.27 354.911 142.53 354.281 142.33C353.65 142.13 352.909 141.481 352.359 141.451C351.808 141.421 351.438 142 350.957 142.02C350.477 142.03 349.886 141.471 349.596 140.951C349.306 140.442 349.306 139.982 349.005 139.902C348.715 139.812 348.124 140.102 347.504 140.272C346.883 140.442 346.233 140.512 345.342 140.052C344.451 139.593 343.32 138.614 343.33 138.194C343.34 137.774 344.491 137.904 345.152 137.644C345.802 137.385 345.952 136.735 345.902 135.567C345.852 134.408 345.582 132.729 345.802 131.66C346.022 130.581 346.713 130.112 346.943 129.413C347.174 128.713 346.933 127.804 347.334 127.385C347.734 126.965 348.785 127.025 349.406 127.265C350.026 127.504 350.227 127.914 350.757 127.914C351.288 127.914 352.158 127.504 352.889 127.504C353.62 127.504 354.211 127.914 354.611 128.194C355.011 128.464 355.232 128.593 355.612 128.643C355.992 128.683 356.533 128.643 356.993 128.354C357.454 128.064 357.824 127.514 358.134 127.315C358.455 127.105 358.715 127.235 358.915 127.145C359.125 127.045 359.276 126.725 359.526 126.775C359.776 126.825 360.126 127.265 360.567 127.425C361.017 127.584 361.558 127.475 361.868 127.315C362.188 127.155 362.268 126.935 362.519 126.955C362.769 126.975 363.179 127.235 363.54 127.275C363.84 127.305 364.1 127.175 364.461 127.365L364.471 127.335ZM314.882 14.4058V13.0172C315.362 12.9872 315.823 12.9672 316.253 12.9772C318.175 13.0172 319.576 13.5866 320.897 13.8763C322.229 14.166 323.49 14.196 324.901 14.3958C326.313 14.6056 327.884 14.9952 328.375 15.3848C328.865 15.7745 328.275 16.1641 326.873 15.9842C325.472 15.8044 323.25 15.0352 321.898 14.9453C320.547 14.8454 320.067 15.4148 319.316 15.3748C318.565 15.3449 317.544 14.7155 316.043 14.4957C315.672 14.4458 315.282 14.4158 314.882 14.4058ZM314.882 8.55156V6.96313C315.342 7.10299 315.642 7.30279 316.093 7.46263C316.693 7.67243 317.554 7.78232 318.185 8.08202C318.815 8.38173 319.206 8.88124 319.716 9.16096C320.227 9.4307 320.857 9.48065 321.188 9.6305C321.518 9.78035 321.548 10.0401 320.837 10.18C320.127 10.3198 318.665 10.3298 317.564 9.9302C316.523 9.56057 315.792 8.8213 314.882 8.56155V8.55156ZM314.882 6.97312V8.56155C314.822 8.54157 314.771 8.53158 314.711 8.52159C313.71 8.30181 312.459 8.67144 311.288 8.5116C310.117 8.35176 309.026 7.65245 308.585 7.21288C308.145 6.76332 308.355 6.57351 308.866 6.57351C309.386 6.57351 310.207 6.7833 311.248 6.83325C312.289 6.8832 313.54 6.77331 314.341 6.87321C314.541 6.90318 314.721 6.93315 314.882 6.98311V6.97312ZM314.882 13.0172V14.4058C313.63 14.3758 312.309 14.5157 311.508 14.6356C310.457 14.7954 310.317 14.9253 310.487 15.255C310.647 15.5846 311.108 16.1041 312.84 16.7835C313.41 17.0132 314.121 17.253 314.882 17.5227V65.7453C314.621 65.5654 314.331 65.3756 314.021 65.1758C312.409 64.1568 310.187 62.938 307.734 62.0889C305.272 61.2397 302.579 60.7602 301.318 60.2207C300.057 59.6812 300.227 59.0718 299.667 58.7921C299.096 58.5124 297.795 58.5523 296.774 58.1428C295.753 57.7332 295.012 56.864 294.231 56.1048C293.45 55.3455 292.62 54.6961 292.189 54.846C291.759 54.9958 291.709 55.9549 291.969 56.7541C292.229 57.5533 292.8 58.2127 293.21 58.902C293.621 59.6013 293.881 60.3406 294.602 60.6403C295.322 60.94 296.493 60.8101 297.404 61.1198C298.315 61.4195 298.976 62.1588 299.777 62.5284C300.577 62.8981 301.538 62.8981 302.079 63.1378C302.619 63.3776 302.75 63.8571 302.469 64.3067C302.189 64.7662 301.488 65.1958 300.527 65.8052C299.566 66.4146 298.355 67.1938 296.283 67.5035C294.211 67.8032 291.298 67.6334 289.667 67.7033C288.035 67.7733 287.685 68.073 286.964 68.3527C286.243 68.6324 285.162 68.8922 284.161 68.9621C283.16 69.032 282.249 68.8922 281.248 67.3936C281.138 67.2238 281.018 67.034 280.908 66.8342V13.6066C282.209 13.7864 283.3 13.6865 284.061 13.8663C285.062 14.1061 285.452 14.8454 286.413 15.6446C287.374 16.4438 288.896 17.3129 289.857 17.3429C290.818 17.3629 291.208 16.5437 291.929 16.1441C292.65 15.7545 293.691 15.7944 294.231 16.254C294.772 16.7135 294.822 17.5827 295.062 17.8424C295.302 18.1022 295.733 17.7525 296.193 17.6826C296.654 17.6027 297.134 17.8025 297.695 17.6626C298.265 17.5227 298.916 17.0432 299.466 16.9433C300.017 16.8434 300.477 17.1231 302.95 17.8424C305.422 18.5617 309.907 19.7106 312.169 20.1302C314.431 20.5498 314.471 20.25 313.72 19.7505C312.97 19.251 311.428 18.5517 310.187 18.2021C308.946 17.8424 308.015 17.8224 306.844 17.4028C305.682 16.9833 304.291 16.1541 303.901 15.235C303.52 14.3159 304.151 13.2869 305.242 13.0471C306.333 12.8074 307.875 13.3468 309.877 13.3868C311.428 13.4168 313.25 13.1271 314.892 13.0272L314.882 13.0172ZM314.882 69.6614V69.8612C314.862 69.7913 314.862 69.7313 314.882 69.6614ZM280.898 105.326V97.0145C281.158 96.9546 281.418 96.8846 281.649 96.8047C282.399 96.535 282.81 96.1254 283.18 95.7357C283.551 95.3561 283.881 95.0065 284.141 94.8067C284.401 94.5969 284.602 94.5369 284.942 94.8866C285.292 95.2362 285.793 95.9955 285.863 96.545C285.943 97.0944 285.593 97.4441 285.362 97.9436C285.132 98.4431 285.022 99.0924 284.401 99.7818C283.781 100.461 282.65 101.18 282.249 102.149C281.849 103.118 282.169 104.337 282.089 104.847C282.009 105.326 281.549 105.176 280.898 105.336V105.326ZM280.898 80.6706V70.4806C281.128 70.5406 281.469 70.5605 282.089 70.7603C283.2 71.11 285.202 72.0191 286.744 72.2788C288.285 72.5386 289.376 72.149 290.137 72.1889C290.898 72.2289 291.338 72.7084 291.118 73.4677C290.898 74.2269 290.027 75.2659 288.746 76.0052C287.464 76.7444 285.763 77.174 284.431 77.9632C283.1 78.7425 282.149 79.8714 281.078 80.5507C281.018 80.5907 280.948 80.6306 280.888 80.6606L280.898 80.6706ZM280.898 13.6066V66.8342C279.987 65.2558 278.996 62.7882 277.735 60.96C276.323 58.892 274.582 57.6333 273.661 56.4244C272.75 55.2056 272.66 54.0368 272.42 53.3874C272.179 52.7381 271.789 52.6082 271.529 53.4074C271.268 54.2066 271.138 55.9449 271.859 57.3835C272.58 58.8221 274.141 59.951 275.172 61.1898C276.193 62.4285 276.674 63.7772 277.284 64.7962C277.895 65.8152 278.636 66.5145 279.196 67.4636C279.767 68.4226 280.157 69.6314 280.457 70.131C280.598 70.3507 280.708 70.4307 280.898 70.4806V80.6706C279.887 81.26 278.776 81.4898 277.675 82.1391C276.504 82.8384 275.322 84.0073 274.522 85.0762C273.721 86.1452 273.28 87.0943 273.22 87.5738C273.15 88.0533 273.461 88.0533 273.941 89.1622C274.422 90.2711 275.072 92.4889 274.832 94.0274C274.592 95.5659 273.461 96.4351 271.919 97.0944C270.378 97.7438 268.416 98.1833 267.895 99.0924C267.375 100.002 268.285 101.39 268.285 102.329C268.285 103.268 267.375 103.738 266.063 105.396C264.762 107.045 263.06 109.872 260.928 111.001C258.796 112.13 256.224 111.57 254.592 111.5C252.96 111.43 252.26 111.87 251.389 112.09C250.518 112.309 249.477 112.309 249.016 112.05C248.556 111.79 248.686 111.27 248.666 110.511C248.646 109.752 248.466 108.753 247.945 107.204C247.425 105.666 246.554 103.578 245.593 102.429C244.632 101.28 243.591 101.061 242.87 99.4321C242.15 97.8037 241.759 94.7667 241.999 92.9984C242.24 91.2402 243.111 90.7607 243.591 89.7816C244.071 88.8026 244.162 87.324 243.571 85.6757C242.98 84.0273 241.719 82.1991 240.808 80.9803C239.897 79.7615 239.327 79.1521 239.607 78.5726C239.887 77.9832 241.018 77.4238 241.649 76.9043C242.28 76.3848 242.41 75.9053 241.539 75.7354C240.668 75.5656 238.796 75.6955 237.405 75.3658C236.014 75.0361 235.103 74.2569 234.362 73.9772C233.621 73.6974 233.061 73.9072 232.16 73.6974C231.269 73.4777 230.048 72.8283 228.987 72.8483C227.915 72.8683 227.005 73.5676 225.243 73.9372C223.481 74.3068 220.869 74.3468 219.327 74.137C217.986 73.9472 217.455 73.5676 216.784 73.3078V45.1655C216.784 45.1655 216.855 45.0856 216.885 45.0456C217.245 44.5861 217.335 44.1565 216.784 43.9267V37.1934C218.126 36.8237 219.707 36.6139 220.909 36.4741C222.941 36.2343 223.902 36.1944 224.452 35.8747C225.003 35.555 225.163 34.9756 224.812 34.3861C224.462 33.7967 223.611 33.2173 222.84 32.9675C222.07 32.7178 221.369 32.8077 220.648 32.7577C219.928 32.7178 219.187 32.538 219.057 32.2882C218.927 32.0384 219.407 31.7088 220.438 31.489C221.469 31.2592 223.061 31.1293 224.432 31.0294C225.803 30.9295 226.955 30.8696 228.216 30.2702C229.477 29.6708 230.848 28.5419 231.829 27.8526C232.81 27.1533 233.401 26.8935 234.432 26.7037C235.463 26.5039 236.944 26.374 237.545 26.1343C238.146 25.8945 237.865 25.5448 237.785 25.0653C237.705 24.5858 237.835 23.9764 238.136 23.6667C238.426 23.347 238.886 23.327 239.557 23.4569C240.228 23.5868 241.129 23.8665 241.679 24.326C242.23 24.7856 242.45 25.415 244.272 25.7446C246.093 26.0843 249.507 26.1243 251.759 26.0044C254.011 25.8845 255.102 25.6048 255.953 24.8855C256.804 24.1662 257.415 23.0173 257.985 22.4179C258.566 21.8185 259.106 21.7785 260.237 21.8784C261.369 21.9783 263.09 22.2181 264.271 22.1582C265.463 22.1082 266.113 21.7586 266.894 21.5887C267.675 21.4289 268.596 21.4489 268.806 21.289C269.026 21.1292 268.546 20.7795 267.735 20.4998C266.934 20.2201 265.793 20.0003 264.822 20.0403C263.841 20.0802 263.02 20.3899 262.249 20.4099C261.489 20.4299 260.788 20.1701 259.977 20.1302C259.156 20.0902 258.225 20.26 257.475 20.27C256.724 20.28 256.153 20.1302 256.053 19.8604C255.943 19.5907 256.294 19.2011 256.694 18.8414C257.094 18.4818 257.555 18.1621 257.995 17.8524C258.446 17.5527 258.876 17.263 259.597 16.9733C260.318 16.6836 261.319 16.3739 260.668 15.9942C260.017 15.6146 257.705 15.1551 256.364 15.3449C255.012 15.5247 254.622 16.3539 253.491 17.0732C252.36 17.7925 250.488 18.4019 249.727 18.7715C248.966 19.1411 249.317 19.271 249.877 19.8804C250.448 20.4898 251.229 21.5787 250.948 22.358C250.668 23.1372 249.317 23.6167 248.706 23.6567C248.095 23.6967 248.226 23.307 247.465 22.9874C246.704 22.6577 245.052 22.3979 243.791 21.9184C242.53 21.4389 241.659 20.7496 240.478 20.8295C239.307 20.9194 237.825 21.7885 236.474 22.2181C235.123 22.6477 233.901 22.6477 233.321 21.9184C232.73 21.1791 232.78 19.7006 233.451 19.2011C234.122 18.7016 235.433 19.1811 236.584 18.7415C237.735 18.312 238.736 16.9633 240.608 15.5247C242.48 14.0861 245.223 12.5676 247.375 11.8283C249.527 11.0891 251.098 11.129 252.79 10.8293C254.492 10.5296 256.314 9.87026 258.756 9.74039C261.198 9.61052 264.241 10.0001 266.784 10.13C269.326 10.2599 271.379 10.13 273.471 10.7594C275.563 11.3888 277.695 12.7774 279.567 13.3468C280.027 13.4867 280.478 13.5766 280.898 13.6366V13.6066ZM280.898 97.0145C280.287 97.1643 279.637 97.2742 279.226 97.4541C278.646 97.7038 278.586 98.0734 278.506 98.483C278.426 98.8926 278.345 99.3522 278.095 100.331C277.845 101.31 277.435 102.809 276.904 103.708C276.383 104.607 275.753 104.917 275.943 105.326C276.143 105.736 277.164 106.255 278.145 106.215C279.126 106.175 280.057 105.566 280.778 105.356C280.818 105.346 280.858 105.336 280.888 105.326V97.0145H280.898ZM216.774 28.462C216.845 28.3621 216.905 28.2622 216.965 28.1723C217.365 27.5129 217.515 27.0534 217.375 26.7037C217.285 26.4739 217.065 26.3041 216.774 26.1642V28.462ZM216.774 23.9364C217.225 24.1462 217.826 24.2861 218.156 24.5358C218.576 24.8555 218.576 25.3251 219.107 25.5348C219.627 25.7446 220.678 25.6747 221.189 25.9444C221.699 26.2142 221.679 26.8236 221.369 27.1333C221.069 27.433 220.478 27.433 220.148 27.7327C219.817 28.0224 219.757 28.6118 219.477 29.0314C219.197 29.451 218.696 29.7207 218.716 29.9305C218.736 30.1503 219.287 30.3201 220.168 30.0304C221.049 29.7407 222.27 28.9815 223.281 28.7717C224.292 28.5619 225.103 28.9115 225.924 28.8016C226.754 28.6917 227.595 28.1323 227.665 27.5728C227.735 27.0234 227.015 26.4739 226.234 26.0743C225.453 25.6747 224.602 25.415 224.102 25.0753C223.601 24.7356 223.451 24.326 223.231 23.9464C223.011 23.5668 222.73 23.2171 222.45 23.0473C222.17 22.8775 221.88 22.8775 222.08 22.5877C222.28 22.308 222.951 21.7386 223.601 21.2091C224.252 20.6796 224.882 20.1801 224.862 19.9104C224.842 19.6406 224.162 19.5907 223.351 20.0303C222.53 20.4598 221.579 21.3789 220.628 21.7885C219.677 22.1981 218.746 22.1182 217.986 22.1482C217.505 22.1682 217.095 22.2381 216.784 22.358V23.9364H216.774ZM248.256 0.299684C249.437 0.63935 250.658 1.26873 251.779 1.30869C252.9 1.34865 253.921 0.809182 255.613 0.609379C257.305 0.409576 259.647 0.569418 261.439 0.829163C263.22 1.08891 264.442 1.45854 265.303 1.53846C266.163 1.61839 266.664 1.3986 266.794 1.4985C266.924 1.59841 266.684 2.008 265.553 2.15786C264.422 2.30771 262.4 2.19782 261.309 2.37764C260.217 2.54747 260.067 3.00702 260.528 3.27675C260.988 3.54649 262.049 3.6364 261.809 3.78625C261.569 3.9361 260.027 4.15589 258.636 3.87616C257.245 3.59644 256.003 2.80722 254.792 2.73728C253.581 2.65736 252.41 3.28674 251.189 3.40663C249.967 3.52651 248.706 3.13689 247.855 2.53748C247.004 1.93807 246.574 1.13886 245.733 0.879114C244.892 0.619369 243.651 0.899094 243.431 0.829163C243.201 0.749241 243.981 0.319664 244.952 0.119861C245.923 -0.0799425 247.074 -0.0299917 248.266 0.299684H248.256ZM207.045 0.479507C207.375 0.499487 207.625 0.539448 207.806 0.579409C208.346 0.699291 208.276 0.859133 207.045 1.1988V0.479507ZM216.774 22.368V23.9464C216.654 23.8965 216.544 23.8365 216.464 23.7666C216.044 23.4469 216.044 22.9774 216.334 22.6577C216.444 22.5378 216.594 22.4479 216.774 22.368ZM216.774 26.1642V28.462C216.374 29.0614 215.814 29.7307 215.293 29.9405C214.682 30.1803 214.122 29.7907 213.431 29.6108C212.75 29.441 211.94 29.481 211.509 29.2212C211.079 28.9615 211.009 28.392 211.299 28.1523C211.589 27.9125 212.25 28.0024 212.801 27.6727C213.351 27.3431 213.812 26.6038 214.392 26.2342C214.973 25.8645 215.663 25.8645 216.234 25.9844C216.434 26.0244 216.614 26.0843 216.774 26.1542V26.1642ZM216.774 37.1534V43.8868C216.704 43.8568 216.624 43.8268 216.524 43.8069C215.703 43.5971 214.012 43.667 213.531 43.5271C213.051 43.3873 213.792 43.0376 213.852 42.0086C213.902 40.9796 213.271 39.2613 214.512 38.1824C215.023 37.7428 215.844 37.4132 216.774 37.1534ZM216.774 45.1356V73.2779C216.674 73.2379 216.564 73.1979 216.444 73.168C215.593 72.9282 214.372 72.9282 213.401 72.5386C212.42 72.149 211.679 71.3697 210.698 70.7403C209.717 70.111 208.496 69.6314 207.565 68.8922C207.375 68.7423 207.205 68.5925 207.045 68.4226V63.3177C207.075 63.1878 207.105 63.0579 207.105 62.938C207.105 62.7682 207.085 62.6084 207.045 62.4485V58.3226C207.635 57.5833 208.366 56.7241 208.857 55.905C209.477 54.876 209.717 53.8969 210.268 53.2376C210.819 52.5782 211.689 52.2286 212.52 51.839C213.351 51.4493 214.132 51.0098 214.532 50.1406C214.933 49.2715 214.953 47.9728 215.333 47.0337C215.683 46.1745 216.344 45.6251 216.754 45.1356H216.774ZM206.314 0.459527C206.594 0.459527 206.835 0.459527 207.045 0.479507V1.1988C206.945 1.22877 206.845 1.25874 206.735 1.28871C206.604 1.31868 206.464 1.35864 206.324 1.3986V0.459527H206.314ZM207.045 58.3226V62.4485C206.905 61.999 206.574 61.6293 206.314 61.2797V59.3416C206.404 59.1917 206.504 59.0319 206.624 58.872C206.745 58.7022 206.895 58.5124 207.045 58.3226ZM207.045 63.3177V68.4226C206.735 68.1029 206.484 67.7533 206.314 67.3837V65.1559C206.554 64.5165 206.905 63.8771 207.045 63.3276V63.3177ZM206.314 17.5527V17.0732C206.785 17.273 206.765 17.4328 206.394 17.5327C206.364 17.5327 206.344 17.5427 206.314 17.5527ZM198.086 1.47852C199.978 1.17882 201.94 0.849143 203.451 0.66932C204.673 0.519468 205.613 0.469517 206.314 0.469517V1.40859C204.713 1.81819 202.12 2.39762 200.538 2.91711C199.267 3.3267 198.657 3.69634 198.076 3.96608V1.47852H198.086ZM206.314 17.0732V17.5527C205.854 17.6526 204.983 17.6826 204.062 18.0722C203.091 18.4918 202.07 19.311 200.889 19.7006C200.008 19.9903 199.047 20.0303 198.086 20.1102V17.0532C198.807 16.9133 199.908 17.0132 200.639 16.9133C201.419 16.8134 201.79 16.4838 202.731 16.4538C203.682 16.4238 205.203 16.6935 205.994 16.9433C206.124 16.9833 206.224 17.0232 206.314 17.0632V17.0732ZM206.314 59.3416V61.2797C206.224 61.1598 206.144 61.0299 206.084 60.91C205.854 60.4405 205.954 59.951 206.314 59.3416ZM206.314 65.1459V67.3737C206.124 66.9641 206.034 66.5145 206.084 66.0649C206.114 65.7652 206.204 65.4556 206.314 65.1459ZM158.387 8.09201C161.75 7.21288 167.486 5.74433 173.001 4.64541C178.517 3.54649 183.822 2.81721 187.225 2.49752C190.629 2.17784 192.14 2.25776 194.723 1.95805C195.724 1.83817 196.895 1.66834 198.086 1.47852V3.94609C197.886 4.046 197.686 4.12592 197.465 4.19585C196.625 4.45559 195.463 4.49555 194.512 4.69536C193.562 4.88517 192.831 5.23483 193.351 5.49457C193.872 5.75431 195.634 5.92415 196.625 6.01406C197.616 6.10397 197.836 6.10397 197.425 6.33375C197.015 6.57351 195.984 7.04305 195.574 7.3927C195.163 7.73237 195.383 7.95215 195.744 8.17194C196.114 8.39172 196.625 8.60151 196.735 8.90122C196.845 9.20092 196.544 9.59054 195.724 9.9302C194.903 10.2699 193.572 10.5796 192.731 10.8293C191.89 11.0891 191.55 11.2989 191.57 11.5386C191.59 11.7784 191.98 12.0381 192.39 12.188C192.801 12.3378 193.231 12.3778 193.421 12.7075C193.612 13.0272 193.572 13.6366 193.101 14.0462C192.631 14.4558 191.72 14.6655 190.619 14.9752C189.517 15.2749 188.226 15.6646 185.984 16.204C183.742 16.7435 180.549 17.4328 178.807 18.0123C177.065 18.5917 176.755 19.0712 176.324 19.5008C175.894 19.9304 175.333 20.32 173.912 20.9394C172.491 21.5588 170.208 22.4279 168.867 23.2871C167.526 24.1462 167.145 25.0054 166.605 25.5049C166.064 26.0044 165.374 26.1343 164.923 26.8835C164.473 27.6328 164.252 29.0114 163.842 29.7907C163.432 30.5699 162.831 30.7397 162.03 30.7997C161.229 30.8696 160.239 30.8196 159.318 30.9895C158.387 31.1593 157.526 31.5489 156.255 31.4191C155.374 31.3291 154.293 30.9895 153.392 30.6998V9.46067C154.132 9.25087 155.184 8.93119 158.387 8.09201ZM198.086 17.0632C198.086 17.0632 197.996 17.0832 197.956 17.0932C197.245 17.273 197.005 17.7625 196.494 18.0023C195.984 18.232 195.213 18.2121 194.573 18.0322C193.922 17.8524 193.401 17.5127 193.031 17.4628C192.661 17.4128 192.44 17.6326 191.86 17.7425C191.279 17.8524 190.328 17.8424 189.848 18.2021C189.367 18.5617 189.337 19.301 190.018 19.8804C190.699 20.4598 192.08 20.8694 193.371 20.8594C194.663 20.8495 195.854 20.4099 197.125 20.2201C197.445 20.1701 197.766 20.1402 198.086 20.1102V17.0532V17.0632ZM153.382 113.099V83.5378C153.982 83.278 154.623 83.1481 155.424 83.3679C156.465 83.6476 157.776 84.5168 159.167 84.8265C160.559 85.1262 162.04 84.8664 163.372 84.6966C164.703 84.5268 165.874 84.4369 166.785 85.0263C167.696 85.6157 168.357 86.8745 169.548 87.4639C170.749 88.0533 172.491 87.9634 173.942 88.1832C175.404 88.403 176.575 88.9225 177.406 89.1822C178.236 89.4419 178.707 89.4419 179.708 89.0323C180.709 88.6228 182.23 87.7936 183.672 87.8635C185.103 87.9334 186.454 88.8825 187.435 89.2721C188.416 89.6617 189.027 89.4919 189.477 89.7017C189.938 89.9215 190.238 90.5309 190.458 91.37C190.679 92.2192 190.809 93.3081 190.368 94.2172C189.938 95.1264 188.927 95.8656 188.216 96.6548C187.495 97.4341 187.065 98.2633 187.065 99.1724C187.065 100.081 187.495 101.08 187.716 102.08C187.936 103.079 187.936 104.078 187.475 104.967C187.015 105.856 186.104 106.635 185.013 107.204C183.922 107.774 182.661 108.114 181.73 108.983C180.799 109.852 180.188 111.24 180.008 112.569C179.838 113.898 180.098 115.157 179.768 116.156C179.438 117.155 178.527 117.894 177.936 118.913C177.345 119.932 177.085 121.241 176.585 121.95C176.084 122.659 175.343 122.799 175.083 123.389C174.823 123.978 175.043 125.017 174.563 125.736C174.082 126.456 172.911 126.845 172.02 127.475C171.129 128.104 170.519 128.973 170.058 129.582C169.598 130.192 169.297 130.541 169.057 131.101C168.817 131.67 168.647 132.45 168.837 132.729C169.037 133.009 169.598 132.799 170.038 132.859C170.469 132.929 170.779 133.269 170.469 133.688C170.168 134.098 169.247 134.578 168.597 135.187C167.946 135.796 167.556 136.536 167.526 136.905C167.506 137.275 167.856 137.275 168.266 137.704C168.677 138.134 169.157 139.003 169.007 139.503C168.857 140.002 168.076 140.132 167.966 140.632C167.856 141.131 168.427 142 169.097 142.849C169.768 143.699 170.559 144.518 171.299 144.847C172.04 145.177 172.741 144.997 173.081 145.017C173.432 145.037 173.432 145.257 173.251 145.387C173.081 145.517 172.731 145.557 172.27 145.717C171.81 145.866 171.249 146.126 170.569 146.236C169.898 146.346 169.107 146.306 168.397 146.566C167.676 146.825 167.025 147.395 166.485 147.305C165.944 147.215 165.504 146.476 164.873 146.066C164.242 145.657 163.412 145.567 162.741 145.197C162.07 144.827 161.54 144.178 161.33 143.609C161.109 143.039 161.199 142.57 161.109 142.15C161.019 141.74 160.759 141.391 160.649 140.891C160.539 140.392 160.579 139.742 160.629 139.063C160.669 138.394 160.719 137.694 160.629 136.805C160.539 135.916 160.329 134.827 159.928 133.978C159.538 133.129 158.967 132.52 158.907 131.76C158.837 131.001 159.278 130.092 159.318 128.633C159.358 127.175 159.017 125.177 158.467 122.959C157.926 120.741 157.186 118.314 156.375 116.505C155.574 114.707 154.703 113.528 153.592 113.159C153.512 113.129 153.442 113.109 153.362 113.089L153.382 113.099ZM153.382 45.8349V43.6071C153.562 43.667 153.732 43.7369 153.892 43.8268C154.503 44.1665 154.963 44.726 155.174 45.1955C155.394 45.665 155.374 46.0347 154.643 46.0147C154.323 46.0147 153.872 45.9248 153.382 45.8349ZM153.382 30.6698C152.981 30.5399 152.621 30.42 152.321 30.3401C151.35 30.0604 151.089 30.1503 150.679 30.0204C150.269 29.8906 149.708 29.5509 148.957 29.3511C148.207 29.1613 147.256 29.1113 146.865 28.8116C146.475 28.5119 146.645 27.9525 146.905 27.453C147.166 26.9534 147.506 26.5239 148.117 26.2042C148.717 25.8845 149.578 25.6647 149.948 25.2751C150.319 24.8855 150.189 24.326 149.838 24.0963C149.498 23.8565 148.937 23.9464 148.197 24.336C147.466 24.7256 146.555 25.415 145.894 25.6947C145.224 25.9744 144.793 25.8445 144.943 25.4749C145.094 25.1053 145.824 24.5059 146.255 24.1162C146.685 23.7266 146.815 23.5568 146.425 23.5168C146.034 23.4769 145.134 23.5568 144.313 23.8365C143.492 24.1162 142.761 24.5858 142.031 24.4359C141.81 24.396 141.59 24.2961 141.38 24.1662V14.0561C142.211 13.9263 143.242 13.7864 144.403 13.4268C145.734 13.0172 147.246 12.3278 148.457 11.7085C149.668 11.0891 150.569 10.5296 151.28 10.18C151.99 9.84029 152.511 9.71042 153.262 9.49064L153.372 9.46067V30.6698H153.382ZM153.382 43.6071V45.8349C152.751 45.725 152.06 45.6151 151.51 45.665C150.539 45.7549 150.038 46.3344 149.458 46.5342C148.867 46.734 148.197 46.5342 147.436 46.7839C146.675 47.0337 145.824 47.733 145.234 48.0027C144.643 48.2725 144.323 48.1226 144.533 47.7929C144.753 47.4633 145.514 46.9638 145.704 46.5841C145.904 46.2045 145.534 45.9448 145.684 45.5851C145.834 45.2255 146.515 44.7659 146.235 44.4962C145.964 44.2264 144.743 44.1365 143.812 44.5062C142.911 44.8558 142.281 45.6351 141.39 46.4642V41.2294C141.5 41.2294 141.61 41.2294 141.73 41.1994C142.381 41.0795 143.062 40.58 143.502 40.5401C143.952 40.5001 144.163 40.9097 144.683 40.9697C145.204 41.0396 146.034 40.7499 146.885 40.7998C147.736 40.8398 148.607 41.2094 149.128 41.7888C149.648 42.3683 149.828 43.1475 150.209 43.4272C150.589 43.707 151.18 43.4972 151.85 43.4372C152.341 43.3973 152.891 43.4372 153.382 43.6071ZM153.382 83.5278V113.089C152.321 112.839 151.089 113.209 150.199 113.109C149.238 112.999 148.677 112.349 147.806 111.81C146.935 111.27 145.764 110.831 144.353 110.012C143.382 109.442 142.301 108.683 141.39 108.034V87.2641C141.39 87.2641 141.48 87.2041 141.53 87.1642C142.101 86.7346 142.621 85.8655 144.123 85.4958C145.624 85.1262 148.107 85.2561 149.718 85.0363C151.33 84.8165 152.07 84.257 152.831 83.8175C153.011 83.7176 153.192 83.6177 153.382 83.5378V83.5278ZM141.4 80.241V78.213C141.62 78.203 141.83 78.213 142.01 78.193C142.481 78.1531 142.781 78.0032 143.202 78.0132C143.612 78.0132 144.133 78.183 144.022 78.3329C143.902 78.4827 143.142 78.6226 142.531 79.1021C142.131 79.4218 141.78 79.8814 141.42 80.241H141.4ZM141.4 51.809V50.8499C142.141 50.4903 142.891 50.0607 143.472 49.8409C144.373 49.4913 144.873 49.6411 144.923 49.8709C144.963 50.1007 144.553 50.4004 143.752 50.75C143.102 51.0298 142.201 51.3394 141.41 51.809H141.4ZM141.4 24.1662C140.889 23.8665 140.409 23.3969 139.998 23.1272C139.418 22.7376 138.987 22.7376 138.617 22.6777C138.247 22.6177 137.946 22.4878 137.476 22.5078C137.006 22.5278 136.355 22.6976 135.474 22.8475C134.593 22.9973 133.472 23.1272 131.57 23.8565C130.93 24.1063 130.209 24.4159 129.468 24.7556V19.5807C129.598 19.5208 129.728 19.4608 129.848 19.4109C131.23 18.7915 131.92 18.5717 132.281 18.292C132.651 18.0122 132.691 17.6726 133.742 17.0432C134.803 16.4238 136.865 15.5147 138.207 14.9752C139.538 14.4358 140.149 14.2659 141.03 14.1161C141.15 14.0961 141.27 14.0761 141.39 14.0561V24.1662H141.4ZM141.4 41.2294V46.4642C141.4 46.4642 141.32 46.5342 141.28 46.5741C140.319 47.4433 139.058 48.3524 138.447 48.5822C137.836 48.8119 137.876 48.3524 137.666 48.3124C137.446 48.2725 136.965 48.6421 136.815 48.5822C136.665 48.5322 136.835 48.0527 136.355 48.1626C135.874 48.2725 134.743 48.9618 134.223 49.5612C133.702 50.1606 133.792 50.6601 134.193 50.81C134.593 50.9598 135.314 50.77 136.075 50.5302C136.835 50.2905 137.646 50.0108 137.896 50.1107C138.147 50.2106 137.846 50.6901 138.097 51.0397C138.347 51.3994 139.148 51.6392 140.209 51.3295C140.589 51.2196 140.999 51.0397 141.41 50.8399V51.799C141.22 51.9189 141.03 52.0388 140.859 52.1786C139.968 52.8779 139.378 53.8769 139.008 54.2466C138.637 54.6162 138.487 54.3565 138.237 54.4164C137.987 54.4864 137.636 54.876 137.466 54.856C137.296 54.836 137.296 54.3964 137.146 54.2566C137.006 54.1167 136.725 54.2666 136.165 54.6762C135.614 55.0858 134.783 55.7651 134.063 56.2546C133.342 56.7441 132.731 57.0438 132.891 57.3036C133.042 57.5633 133.963 57.7831 133.983 58.1627C134.003 58.5424 133.132 59.0818 132.181 59.3915C131.28 59.6812 130.309 59.7512 129.488 60.1708V41.9187C129.728 41.9087 129.969 41.8588 130.219 41.7489C131.02 41.3992 131.941 40.4502 132.831 39.8108C133.722 39.1814 134.593 38.8817 135.304 38.9816C136.015 39.0915 136.555 39.611 137.306 39.7509C138.057 39.8907 139.018 39.651 139.468 39.7608C139.928 39.8707 139.878 40.3303 140.179 40.6799C140.419 40.9796 140.899 41.2094 141.42 41.2094L141.4 41.2294ZM141.4 78.213V80.241C141.21 80.4308 141.009 80.5907 140.789 80.7005C140.149 81.0003 139.328 80.8005 138.988 80.6506C138.637 80.5007 138.757 80.4008 139.058 79.9813C139.348 79.5617 139.818 78.8224 140.369 78.4927C140.699 78.2929 141.07 78.243 141.41 78.223L141.4 78.213ZM141.4 87.2541V108.024C140.989 107.734 140.619 107.464 140.309 107.234C139.298 106.505 138.907 106.265 138.477 105.986C138.057 105.706 137.596 105.376 137.596 105.087C137.596 104.797 138.057 104.537 138.047 104.377C138.037 104.227 137.556 104.177 137.216 103.758C136.875 103.338 136.685 102.529 136.735 102C136.785 101.47 137.096 101.21 137.166 100.781C137.246 100.361 137.086 99.7718 137.206 99.2623C137.326 98.7528 137.716 98.3132 138.037 97.7837C138.357 97.2542 138.587 96.6249 138.457 95.9955C138.327 95.3661 137.826 94.7367 137.246 94.507C136.665 94.2772 136.015 94.457 134.523 94.7567C133.192 95.0264 131.21 95.4061 129.448 95.476V92.4989C129.558 92.5888 129.678 92.6688 129.788 92.7387C130.769 93.3681 131.72 93.2782 132.531 93.0884C133.332 92.8885 133.993 92.5889 134.813 92.389C135.644 92.1892 136.645 92.1093 137.486 91.3201C138.337 90.5409 139.028 89.0623 139.688 88.3231C140.289 87.6437 140.849 87.5938 141.38 87.2541H141.4ZM129.468 81.8095V80.7205C129.858 80.5307 130.309 80.1411 131.01 80.0612C131.74 79.9813 132.731 80.271 133.592 80.281C134.453 80.291 135.184 80.0312 135.744 79.9413C136.315 79.8514 136.715 79.9413 136.545 80.1211C136.375 80.3009 135.634 80.5907 134.883 80.8804C134.133 81.1701 133.372 81.4798 132.351 81.5997C131.46 81.6996 130.369 81.6696 129.478 81.7995L129.468 81.8095ZM129.468 38.1125V35.9146C129.768 36.1344 130.169 36.2843 130.619 36.3142C131.48 36.3642 132.541 35.9945 133.192 36.0145C133.832 36.0245 134.053 36.4141 133.652 36.8637C133.252 37.3133 132.231 37.8128 131.4 37.9726C130.759 38.1025 130.239 38.0226 129.468 38.1225V38.1125ZM129.468 33.9166V32.2582C129.989 32.0684 130.539 31.7787 131.07 31.6388C131.83 31.429 132.531 31.5389 133.242 31.459C133.963 31.3691 134.703 31.0894 135.354 30.7397C136.005 30.3901 136.575 29.9805 136.735 30.2802C136.895 30.5799 136.655 31.6089 135.734 32.3182C134.813 33.0375 133.202 33.4471 132.041 33.5769C130.889 33.7068 130.189 33.557 129.668 33.7967C129.598 33.8267 129.528 33.8666 129.458 33.9166H129.468ZM129.468 18.0822C129.778 17.9623 130.069 17.8524 130.329 17.7325C131.01 17.4128 131.47 17.0432 131.73 16.8634C131.991 16.6836 132.061 16.6836 131.62 16.8634C131.22 17.0332 130.409 17.3529 129.458 17.5727V18.0822H129.468ZM129.468 24.7556C128.007 25.415 126.475 26.1642 125.454 26.6338C123.903 27.3431 123.472 27.433 122.461 27.3431C121.45 27.2532 119.849 26.9934 118.687 27.0434C117.526 27.0833 116.786 27.433 116.385 27.4929C115.975 27.5529 115.885 27.3431 117.186 26.7137C118.477 26.0943 121.15 25.0553 122.832 24.4159C124.513 23.7666 125.204 23.5168 125.264 23.297C125.324 23.0773 124.763 22.9074 124.513 22.7176C124.253 22.5278 124.293 22.308 125.354 21.6886C126.315 21.1192 128.127 20.2101 129.478 19.5807V24.7556H129.468ZM129.468 17.5627C129.378 17.5827 129.288 17.6027 129.198 17.6226C128.147 17.8324 126.966 17.8724 126.125 18.0722C125.284 18.272 124.783 18.6117 124.283 18.8914C123.782 19.1611 123.282 19.3609 122.371 19.6606C121.46 19.9603 120.129 20.3799 117.146 21.5488C116.615 21.7586 116.035 21.9883 115.414 22.2381V25.6248C116.896 25.1452 118.697 24.5458 119.768 23.9664C121.24 23.1772 121.32 22.4379 122.131 21.8185C122.932 21.1991 124.463 20.6996 125.524 20.1801C126.595 19.6606 127.196 19.1112 127.967 18.7116C128.437 18.4618 128.968 18.272 129.458 18.0822V17.5727L129.468 17.5627ZM129.468 32.2582V33.9166C129.068 34.2063 128.827 34.7458 128.958 35.2153C129.028 35.4751 129.208 35.7148 129.468 35.9046V38.1025C129.248 38.1324 128.998 38.1724 128.727 38.2423C127.516 38.542 125.734 39.3313 124.383 39.641C123.032 39.9606 122.121 39.8008 121.41 39.8508C120.699 39.8907 120.199 40.1305 119.718 40.2703C119.238 40.4102 118.787 40.4502 118.087 40.7399C117.386 41.0196 116.455 41.5391 115.604 41.9087C115.544 41.9387 115.474 41.9587 115.414 41.9887V40.3603C115.945 40.0406 116.505 39.7209 116.956 39.3612C117.696 38.7718 118.107 38.1025 117.987 37.7628C117.867 37.4231 117.216 37.4231 116.455 37.6429C116.125 37.7328 115.775 37.8727 115.414 38.0226V33.517C115.744 33.4271 116.085 33.3472 116.465 33.3072C117.646 33.1873 119.128 33.4471 120.479 33.2672C121.831 33.0874 123.052 32.448 124.123 32.1084C125.204 31.7587 126.135 31.6988 126.865 31.8686C127.596 32.0384 128.117 32.458 128.787 32.3981C128.998 32.3781 129.218 32.3182 129.448 32.2382L129.468 32.2582ZM129.468 41.9287C128.948 41.9587 128.447 41.8088 127.917 41.7289C127.136 41.609 126.265 41.629 125.614 41.5091C124.964 41.3892 124.523 41.1295 123.372 41.639C122.221 42.1485 120.349 43.4272 119.018 43.7469C117.686 44.0666 116.906 43.4073 116.185 43.4073C115.915 43.4073 115.654 43.4972 115.434 43.637V45.7949C115.484 45.9048 115.484 46.0347 115.434 46.1745V47.8029C115.634 47.9028 115.855 47.9828 116.085 48.0327C116.605 48.1626 117.086 48.1626 117.636 48.2725C118.187 48.3824 118.828 48.6021 119.018 48.9118C119.218 49.2315 118.978 49.6411 118.477 50.1606C117.977 50.6801 117.216 51.3095 116.956 51.769C116.695 52.2286 116.936 52.5083 117.366 52.7481C117.797 52.9878 118.437 53.1776 118.617 53.5872C118.798 53.9868 118.537 54.5962 117.967 55.0758C117.396 55.5553 116.495 55.905 115.684 55.875C115.604 55.875 115.524 55.875 115.444 55.855V78.6825C115.885 78.4028 116.405 78.173 116.816 78.0532C117.546 77.8334 117.977 77.9233 118.507 77.7135C119.028 77.5037 119.638 77.0042 120.279 77.0242C120.92 77.0441 121.6 77.5936 122.311 77.8434C123.032 78.0931 123.792 78.0532 124.363 78.3029C124.944 78.5527 125.334 79.0921 125.824 79.1421C126.315 79.182 126.906 78.7325 126.926 78.1231C126.946 77.5137 126.405 76.7544 125.714 76.3049C125.024 75.8553 124.203 75.7254 123.772 75.1161C123.352 74.5066 123.322 73.4177 123.913 72.4786C124.503 71.5296 125.694 70.7304 126.265 69.8113C126.835 68.8922 126.765 67.8432 127.156 67.1439C127.546 66.4346 128.397 66.065 128.477 65.3756C128.557 64.6763 127.856 63.6573 127.836 62.6783C127.816 61.6993 128.467 60.7702 129.318 60.2707C129.368 60.2407 129.428 60.2107 129.478 60.1807V41.9287H129.468ZM129.468 80.7205V81.8095C129.338 81.8294 129.208 81.8494 129.088 81.8794C128.137 82.0992 127.536 82.5987 126.996 82.8285C126.455 83.0582 125.985 83.0083 125.294 83.298C124.593 83.5777 123.672 84.1871 123.082 84.347C122.491 84.5068 122.231 84.2271 122.431 83.8674C122.641 83.5078 123.312 83.0782 124.373 82.5387C125.434 82.0093 126.886 81.3799 127.776 81.1002C128.667 80.8304 129.008 80.9203 129.408 80.7405C129.428 80.7405 129.448 80.7205 129.468 80.7105V80.7205ZM129.468 92.4989V95.476C129.248 95.476 129.038 95.486 128.827 95.486C126.936 95.476 125.474 95.0165 124.563 94.6368C123.652 94.2572 123.282 93.9575 122.801 94.1073C122.321 94.2572 121.73 94.8666 120.97 95.0664C120.209 95.2662 119.268 95.0464 118.677 95.0964C118.077 95.1463 117.817 95.476 117.286 95.6658C116.866 95.8057 116.285 95.8656 115.434 96.1453V91.5199H115.454C116.345 90.8106 116.956 89.9914 117.656 89.1622C118.357 88.333 119.138 87.5138 119.919 87.2941C120.699 87.0743 121.49 87.4639 121.53 88.0134C121.57 88.5528 120.88 89.2521 120.599 89.9914C120.319 90.7307 120.449 91.5099 121.03 91.7497C121.62 91.9894 122.661 91.6797 123.702 91.2102C124.743 90.7307 125.794 90.0813 126.815 90.431C127.716 90.7407 128.607 91.8296 129.478 92.5089L129.468 92.4989ZM115.424 52.1686V50.6102C115.514 50.6102 115.604 50.6102 115.694 50.6301C116.165 50.74 116.555 51.2595 116.375 51.6392C116.245 51.9189 115.825 52.1187 115.414 52.1686H115.424ZM115.424 22.2281V25.6148C114.864 25.7946 114.353 25.9544 113.943 26.0843C112.952 26.404 112.531 26.5738 112.371 26.7536V23.4769C113.422 23.0373 114.463 22.6177 115.424 22.2281ZM115.424 33.537V38.0425C114.954 38.2423 114.483 38.4721 114.023 38.6719C113.222 39.0316 112.481 39.3113 112.421 39.2214C112.371 39.1315 113.002 38.6819 113.072 38.3322C113.152 37.9826 112.671 37.7428 112.421 37.7928C112.401 37.7928 112.381 37.7928 112.361 37.8128V34.2862C112.691 34.2563 113.012 34.2263 113.322 34.1664C114.053 34.0265 114.703 33.7468 115.414 33.547L115.424 33.537ZM115.424 40.3802V42.0086C114.653 42.3283 113.983 42.4981 113.763 42.3283C113.522 42.1485 113.803 41.5591 114.483 41.0096C114.754 40.7898 115.084 40.59 115.424 40.3802ZM115.424 43.637V45.7949C115.364 45.665 115.254 45.5452 115.114 45.4253C114.854 45.1955 114.503 44.9557 114.653 44.5162C114.754 44.2364 115.044 43.8768 115.424 43.647V43.637ZM115.424 46.1745V47.8029C115.154 47.6731 114.954 47.4932 114.914 47.2934C114.844 46.9438 115.284 46.5142 115.414 46.1845V46.1645L115.424 46.1745ZM115.424 50.6102V52.1686C115.274 52.1886 115.124 52.1786 115.004 52.1586C114.533 52.0487 114.313 51.5992 114.483 51.2196C114.623 50.9099 115.024 50.6501 115.424 50.6202V50.6102ZM115.424 55.865V78.6925C115.094 78.9023 114.804 79.1521 114.623 79.4018C114.203 80.0112 114.373 80.7005 114.113 81.26C113.863 81.7995 113.192 82.2091 112.371 82.4388V54.3165C112.721 54.5163 113.082 54.7861 113.482 55.0558C114.053 55.4254 114.703 55.7851 115.424 55.865ZM115.424 91.5099V96.1354C115.194 96.2153 114.944 96.3052 114.663 96.4151C113.983 96.6948 113.172 97.1244 112.361 97.514V92.7787C113.492 92.6788 114.583 92.1493 115.414 91.4999L115.424 91.5099ZM112.371 46.8239V46.0347C112.451 45.9847 112.531 45.9547 112.591 45.9747C112.792 46.0247 112.792 46.5242 112.591 46.724C112.531 46.7839 112.451 46.8139 112.371 46.8239ZM112.371 28.1623V27.9625C112.371 28.0324 112.371 28.0923 112.371 28.1623ZM112.371 23.4769V26.7536C112.281 26.8436 112.261 26.9435 112.271 27.0733C112.271 27.3031 112.361 27.6328 112.371 27.9625V28.1623C112.371 28.2921 112.341 28.412 112.301 28.5219C112.131 28.9914 111.58 29.3111 110.73 29.7507C109.879 30.1803 108.728 30.7297 108.207 31.1293C107.687 31.5289 107.797 31.7887 107.777 32.1683C107.757 32.5479 107.606 33.0475 106.976 33.3771C106.345 33.7068 105.234 33.8567 104.223 34.0165C103.212 34.1763 102.301 34.3562 101.5 34.8357C100.71 35.3152 100.029 36.0945 99.4283 36.4141C98.8278 36.7338 98.3072 36.574 97.6566 36.8437C97.0059 37.1134 96.2152 37.8128 95.6446 38.1724C95.064 38.5321 94.6937 38.552 94.8238 38.3223C94.9539 38.0925 95.5845 37.613 96.1251 37.1934C96.6656 36.7738 97.1261 36.4041 96.7857 36.4941C96.4454 36.594 95.3143 37.1534 94.4034 37.7528C93.4925 38.3522 92.7918 38.9816 91.5205 39.5011C90.2493 40.0206 88.3974 40.4302 87.3464 40.9197C86.2953 41.4092 86.0251 41.9687 86.2053 42.2084C86.3754 42.4482 86.986 42.3583 87.6567 42.1785C88.3274 41.9986 89.0381 41.7089 89.989 41.1994C90.9399 40.6899 92.1111 39.9507 92.7117 39.7908C93.3123 39.631 93.3323 40.0406 93.6827 40.2404C94.033 40.4402 94.7037 40.4102 95.9849 39.7509C97.2662 39.0915 99.1581 37.7828 100.93 36.8137C102.692 35.8447 104.323 35.2153 105.424 34.8757C106.525 34.536 107.086 34.496 107.286 34.6559C107.486 34.8157 107.306 35.1853 106.375 35.6349C105.444 36.0845 103.743 36.604 101.881 37.4231C100.019 38.2523 97.9969 39.3812 96.3353 40.2903C94.6736 41.1994 93.3623 41.8987 92.5115 42.1984C91.6607 42.4981 91.2703 42.4182 90.7197 42.4782C90.1692 42.5481 89.4485 42.7579 88.8779 42.9877C88.3073 43.2174 87.8969 43.4572 87.7968 43.697C87.6967 43.9367 87.9169 44.1765 87.6867 44.3563C87.4565 44.5361 86.7858 44.676 86.3154 44.9857C85.8449 45.3054 85.5846 45.8049 84.4335 46.4443C83.2824 47.0836 81.2303 47.8629 79.5787 48.6921C78.7479 49.1017 78.0172 49.5312 77.3765 49.9109V48.5622C78.6178 47.8129 80.2394 46.9538 81.2003 46.4543C82.3014 45.8848 82.5416 45.8049 82.6217 45.5851C82.7118 45.3653 82.6417 45.0157 82.4716 44.7959C82.3014 44.5661 82.0111 44.4562 81.5406 44.4362C81.0702 44.4163 80.3895 44.4762 80.3094 44.3164C80.2293 44.1565 80.7599 43.7669 81.4205 43.2974C82.0812 42.8278 82.892 42.2884 83.1622 41.9687C83.4325 41.649 83.1723 41.5691 82.6618 41.7089C82.1512 41.8488 81.3905 42.2184 81.1102 42.2184C80.8299 42.2184 81.0201 41.8488 81.4405 41.4492C81.8509 41.0496 82.4816 40.61 84.5336 39.3712C86.5756 38.1324 90.039 36.0945 91.9509 34.8157C93.8628 33.547 94.2332 33.0475 94.8939 32.528C95.5445 32.0085 96.4854 31.459 97.2362 31.1693C97.9869 30.8796 98.5575 30.8296 99.108 30.6998C99.6586 30.5699 100.209 30.3501 100.579 29.9305C100.95 29.5109 101.15 28.8816 101.841 28.2821C102.541 27.6827 103.733 27.1233 106.655 25.8745C108.247 25.1952 110.339 24.316 112.401 23.4569L112.371 23.4769ZM112.371 34.2762C111.56 34.3462 110.73 34.3861 109.999 34.6559C108.978 35.0355 108.167 35.8847 107.246 36.554C106.325 37.2233 105.274 37.7229 104.353 38.1025C103.432 38.4821 102.621 38.7418 102.051 39.1814C101.47 39.611 101.13 40.2204 100.199 40.6699C99.2782 41.1195 97.7767 41.3992 96.6356 41.8788C95.5045 42.3583 94.7437 43.0276 94.4034 43.6071C94.063 44.1865 94.1531 44.656 94.6136 44.686C95.074 44.706 95.8948 44.2764 96.7057 44.1066C97.5164 43.9367 98.2972 44.0566 99.3583 43.7669C100.429 43.4872 101.771 42.8078 102.111 42.8678C102.451 42.9177 101.771 43.707 101.24 44.4362C100.71 45.1655 100.319 45.8349 99.8688 46.1745C99.4183 46.5142 98.9178 46.5142 98.5275 46.4043C98.1371 46.2944 97.8568 46.0746 97.2962 46.1945C96.7457 46.3144 95.9149 46.7739 94.7938 46.9638C93.6726 47.1636 92.2613 47.0936 91.2803 46.9937C90.2993 46.8938 89.7588 46.764 89.6286 46.5442C89.4985 46.3244 89.7788 46.0247 89.8889 45.7749C89.999 45.5252 89.9289 45.3254 90.2292 44.9957C90.5195 44.656 91.1802 44.1765 91.1201 44.1066C91.0701 44.0266 90.2993 44.3563 89.4685 44.7759C88.6276 45.1955 87.7168 45.725 87.0961 46.1446C86.4755 46.5641 86.1452 46.8938 86.1152 47.0936C86.0851 47.2934 86.3454 47.3534 86.5856 47.4832C86.8259 47.6131 87.0461 47.8129 87.1061 48.0527C87.1662 48.2924 87.0661 48.5922 86.8058 48.8319C86.5356 49.0717 86.1052 49.2515 85.7648 49.2016C85.4245 49.1516 85.1742 48.8519 84.8739 48.6721C84.5736 48.4923 84.2433 48.4323 83.2023 48.772C82.1613 49.1216 80.4195 49.8809 79.4686 50.4903C78.5076 51.0997 78.3375 51.5692 78.0372 52.0088C77.837 52.3085 77.5767 52.5882 77.3765 52.828V53.3874H77.3965C77.7769 53.2176 78.4776 52.758 79.1883 52.4583C79.909 52.1586 80.6498 51.9988 81.5707 51.5892C82.4916 51.1796 83.5927 50.5003 84.3034 50.1606C85.0241 49.8209 85.3544 49.811 85.5046 50.0008C85.6547 50.1906 85.6047 50.5802 85.3144 50.8899C85.0241 51.1996 84.4735 51.4294 84.3434 51.769C84.2033 52.1087 84.4836 52.5682 84.5036 52.9479C84.5336 53.3275 84.3134 53.6372 83.6527 54.2865C82.9921 54.9459 81.891 55.9549 81.0802 56.4644C80.2594 56.9739 79.7289 56.9839 79.1283 57.2936C78.5577 57.5833 77.9371 58.1527 77.3665 58.4824V99.2223C77.3665 99.2223 77.4366 99.2223 77.4666 99.2123C78.7078 99.0425 80.1393 98.3032 81.3204 98.2333C82.4916 98.1634 83.4125 98.7728 84.0531 99.0625C84.6938 99.3422 85.0641 99.3022 85.3544 99.3922C85.6447 99.4821 85.8649 99.6919 86.5856 99.7818C87.3063 99.8717 88.5276 99.8217 89.7388 99.9116C90.96 100.002 92.1812 100.211 93.0821 100.121C93.9829 100.022 94.5735 99.6119 94.7337 99.2923C94.8939 98.9726 94.6336 98.7628 93.7828 98.6329C92.9319 98.503 91.5005 98.4631 90.5395 98.3432C89.5786 98.2233 89.0981 98.0235 88.3073 97.9436C87.5166 97.8537 86.4055 97.8736 85.6647 97.6539C84.924 97.4241 84.5536 96.9446 84.2033 96.8247C83.8529 96.7048 83.5326 96.9446 83.3524 96.8646C83.1823 96.7847 83.1522 96.3951 83.7328 96.0754C84.3134 95.7457 85.4845 95.486 86.1752 95.6059C86.8659 95.7258 87.0561 96.2253 87.8369 96.2752C88.6176 96.3252 89.989 95.9356 90.99 95.9156C91.991 95.8956 92.6216 96.2452 93.8128 96.3951C95.004 96.545 96.7357 96.505 97.6266 96.8946C98.5074 97.2842 98.5275 98.1134 98.7176 98.4731C98.8978 98.8327 99.2482 98.7228 99.5184 98.8926C99.7887 99.0625 99.9889 99.522 100.569 99.7418C101.16 99.9616 102.141 99.9416 103.292 99.6919C104.443 99.4421 105.775 98.9626 106.906 98.8127C108.037 98.6629 108.978 98.8327 110.309 98.4131C110.94 98.2133 111.65 97.8836 112.361 97.534V92.7986C112.291 92.7986 112.221 92.8086 112.151 92.8086C110.93 92.8486 109.668 92.3691 108.708 91.7197C107.747 91.0703 107.096 90.2412 106.796 89.4419C106.495 88.6427 106.535 87.8535 106.535 87.2741C106.535 86.6946 106.495 86.295 106.796 85.9454C107.096 85.5957 107.757 85.296 108.257 84.7765C108.758 84.257 109.108 83.5178 109.779 83.1282C110.449 82.7385 111.45 82.6886 112.301 82.4688L112.361 82.4488V54.3265C112.171 54.2166 111.981 54.1267 111.791 54.0867C111.26 53.9569 110.71 54.1267 109.498 54.5563C108.277 54.9859 106.385 55.6652 105.124 55.9249C103.863 56.1847 103.232 56.0049 102.291 56.3745C101.36 56.7441 100.119 57.6532 99.2181 58.1028C98.3273 58.5523 97.7767 58.5224 97.5465 58.3625C97.3062 58.2027 97.3763 57.893 97.016 57.8131C96.6556 57.7232 95.8748 57.853 95.2342 57.923C94.5936 57.9929 94.0931 57.9929 93.7627 57.7032C93.4324 57.4235 93.2823 56.854 93.4024 56.3445C93.5225 55.835 93.9129 55.3755 94.4935 54.806C95.074 54.2266 95.8348 53.5373 96.2552 53.0278C96.6756 52.5183 96.7657 52.1886 97.4063 51.829C98.047 51.4693 99.2482 51.0797 99.8888 50.4903C100.529 49.9009 100.62 49.1216 100.86 48.6221C101.1 48.1226 101.49 47.9028 101.831 47.773C102.171 47.6431 102.451 47.6031 102.571 47.723C102.692 47.8429 102.652 48.1226 102.421 48.3424C102.191 48.5622 101.781 48.712 101.791 48.8119C101.801 48.9118 102.241 48.9518 102.571 48.8419C102.912 48.732 103.152 48.4723 103.532 48.4423C103.913 48.4123 104.433 48.6021 105.014 48.4123C105.594 48.2125 106.225 47.6331 107.006 47.4533C107.787 47.2834 108.728 47.5232 109.428 47.1835C110.139 46.8439 110.619 45.9348 110.79 45.3653C110.96 44.7959 110.83 44.5861 110.489 44.676C110.139 44.7759 109.578 45.1855 108.858 45.4552C108.137 45.725 107.266 45.8548 106.495 46.0646C105.725 46.2744 105.044 46.5542 104.523 46.6141C104.003 46.684 103.632 46.5242 103.442 46.2245C103.262 45.9248 103.262 45.4652 103.612 45.2355C103.973 45.0057 104.694 45.0057 105.144 44.7859C105.604 44.5661 105.795 44.1365 106.165 43.8768C106.535 43.617 107.076 43.5271 107.206 43.0776C107.336 42.618 107.056 41.7988 106.946 41.2094C106.836 40.62 106.906 40.2703 107.797 39.8607C108.688 39.4511 110.409 38.9716 111.28 38.572C112.081 38.2024 112.161 37.9027 112.361 37.8128V34.2862L112.371 34.2762ZM112.371 46.0347C112.191 46.1446 112.001 46.3843 112.001 46.5641C112.001 46.744 112.191 46.8439 112.371 46.8239V46.0347ZM77.3565 57.2237V55.2856C77.6568 55.2556 77.9671 55.2056 78.3174 55.0958C79.2384 54.806 80.3695 54.1067 80.9701 53.827C81.5607 53.5473 81.6207 53.6871 81.4305 53.9269C81.2403 54.1667 80.7999 54.5063 80.4396 54.8959C80.0792 55.2856 79.7789 55.7351 79.1883 56.1547C78.6878 56.5144 77.9671 56.844 77.3665 57.2237H77.3565ZM77.3565 47.0836H77.3665C78.0772 46.6341 78.7078 46.3843 79.0382 46.1845C79.3685 45.9847 79.3885 45.8349 79.2784 45.7949C79.1683 45.7549 78.918 45.8449 78.6378 45.7949C78.3575 45.7549 78.0572 45.5851 77.7369 45.6151C77.6168 45.6251 77.4866 45.665 77.3565 45.735V47.0936V47.0836ZM77.3565 44.8858C77.887 44.676 78.5277 44.4862 78.838 44.2664C79.1983 44.0167 79.1483 43.7369 78.9781 43.5871C78.8079 43.4372 78.5076 43.4172 78.2374 43.4872C77.9771 43.5571 77.7569 43.7169 77.3465 44.0566V44.8858H77.3565ZM77.3565 44.0566V44.8858C77.2864 44.9158 77.2164 44.9457 77.1463 44.9757C76.5857 45.2155 76.2254 45.4652 75.9951 45.5851C75.7649 45.705 75.6448 45.695 75.6148 45.655C75.5747 45.6151 75.6148 45.5551 75.9551 45.2654C76.2854 44.9657 76.9061 44.4362 77.3365 44.0866L77.3665 44.0666L77.3565 44.0566ZM77.3565 45.725V47.0836C76.6458 47.5332 75.845 48.1626 75.0242 48.5722C74.7539 48.712 74.4736 48.8119 74.2034 48.9118V47.5532C74.3836 47.5132 74.5938 47.4533 74.814 47.3534C75.3946 47.0936 76.0852 46.5941 76.5857 46.2245C76.896 46.0047 77.1363 45.8349 77.3565 45.725ZM77.3565 48.5822C77.1863 48.6821 77.0162 48.792 76.866 48.8919C75.6048 49.6911 75.0342 50.2605 74.2534 50.5502C74.2334 50.5502 74.2234 50.5602 74.2034 50.5702V51.3095C74.6738 51.2296 75.1243 51.1097 75.6848 50.8599C76.1653 50.6401 76.7259 50.3105 77.3665 49.9408V48.5922L77.3565 48.5822ZM77.3565 52.828V53.3874C76.9961 53.5373 76.9361 53.4074 77.1163 53.1377C77.1763 53.0478 77.2564 52.9479 77.3565 52.828ZM77.3565 55.2856V57.2237C77.2464 57.2936 77.1463 57.3535 77.0462 57.4235C76.3955 57.883 75.9951 58.4125 76.0652 58.6622C76.1353 58.902 76.6658 58.862 77.2664 58.5424C77.2964 58.5224 77.3265 58.5024 77.3665 58.4924V99.2323C76.3055 99.3522 75.3745 99.0725 74.2134 98.8926V55.5353C74.2134 55.5353 74.2434 55.5353 74.2634 55.5353C74.6638 55.5453 75.3145 55.3655 76.0052 55.3255C76.4356 55.3055 76.876 55.3255 77.3765 55.2956L77.3565 55.2856ZM74.2034 54.6662V53.4773C74.6038 53.2276 74.844 53.1876 74.9741 53.2775C75.1343 53.3874 75.1243 53.6871 74.864 54.0268C74.6939 54.2366 74.4336 54.4564 74.2134 54.6662H74.2034ZM74.2034 47.5432V48.9018C73.6528 49.0917 73.1023 49.2415 72.5718 49.4713C71.781 49.811 71.0302 50.3105 70.4597 50.4903C69.8991 50.6701 69.5187 50.5103 69.2985 50.4703C69.0683 50.4204 68.9982 50.4803 69.1283 50.4004C69.2585 50.3204 69.5888 50.1007 70.1293 49.6711C70.6699 49.2415 71.4106 48.6021 71.8711 48.2625C72.3315 47.9228 72.5117 47.8828 72.6618 47.8029C72.802 47.723 72.9121 47.5931 73.0222 47.5532C73.1223 47.5132 73.2224 47.5532 73.5027 47.5732C73.6729 47.5831 73.9131 47.5831 74.2134 47.5332L74.2034 47.5432ZM74.2034 50.5702C73.4326 50.8499 72.4516 50.8699 71.6909 51.0797C70.9101 51.2995 70.3396 51.7091 70.6599 51.789C70.9802 51.8689 72.1714 51.6092 73.1123 51.4593C73.5127 51.3994 73.863 51.3594 74.2134 51.2995V50.5602L74.2034 50.5702ZM74.2034 53.4873V54.6762C74.0732 54.806 73.9531 54.9259 73.8831 55.0358C73.7029 55.3155 73.843 55.5153 74.2034 55.5353V98.8926C74.0532 98.8727 73.9031 98.8427 73.7429 98.8327C72.3015 98.6629 70.4797 98.7028 69.5388 98.3332C68.6078 97.9636 68.5578 97.1843 67.9972 96.7647C67.4267 96.3551 66.3456 96.3052 65.5548 95.506C64.774 94.7068 64.2936 93.1383 63.3827 92.2292C62.5819 91.43 61.4407 91.1303 60.4097 91.3201V68.6924C61.2906 68.103 62.1114 67.5635 62.9622 67.1239C64.4437 66.3746 66.0553 65.9451 67.3266 65.1459C68.5978 64.3566 69.5388 63.1978 70.2895 62.5884C71.0402 61.979 71.6108 61.919 71.9511 61.7692C72.3015 61.6293 72.4316 61.4095 72.1213 61.2297C71.821 61.0499 71.0803 60.89 70.2895 61.0599C69.4987 61.2297 68.6779 61.6992 67.5368 62.4485C66.3957 63.1978 64.9342 64.2168 63.8431 64.7862C62.752 65.3557 62.0413 65.4556 61.0704 65.9351C60.8602 66.045 60.6299 66.1649 60.3997 66.2947V62.4285C60.9803 62.2287 61.6409 62.3786 62.5919 62.0689C63.6429 61.7292 65.0443 60.8301 66.0353 60.1408C67.0163 59.4615 67.5868 58.9919 68.2775 58.7322C68.9682 58.4724 69.789 58.4125 70.2094 58.2227C70.6298 58.0329 70.6699 57.7032 70.4397 57.5334C70.2194 57.3635 69.739 57.3535 69.4887 57.2536C69.2485 57.1537 69.2285 56.9539 69.5688 56.7241C69.9091 56.4944 70.5898 56.2346 71.4106 55.6652C72.2314 55.0958 73.1724 54.2166 73.813 53.7271C73.9531 53.6172 74.0732 53.5373 74.1934 53.4674L74.2034 53.4873ZM60.4097 61.4295C60.8401 61.0699 61.2906 60.7102 61.7911 60.3706C62.9022 59.6313 64.2735 59.0419 65.6249 58.1228C66.9762 57.2037 68.2975 55.9549 69.4186 55.0358C70.5397 54.1167 71.4507 53.5173 71.5908 53.2376C71.7309 52.9579 71.1003 52.9878 70.5097 53.2775C69.9191 53.5673 69.3786 54.1267 68.8881 54.2266C68.3976 54.3265 67.9672 53.9868 67.3966 53.9968C66.8261 54.0068 66.1354 54.3765 65.8952 54.846C65.6549 55.3155 65.8751 55.895 65.5448 56.2946C65.2145 56.6942 64.3336 56.924 63.5328 57.2336C62.742 57.5433 62.0313 57.933 61.721 57.8231C61.4107 57.7132 61.5008 57.0938 62.0513 56.4244C62.6019 55.7551 63.6329 55.0358 64.2235 54.5063C64.8241 53.9769 64.9943 53.6272 64.9042 53.5772C64.8141 53.5273 64.4537 53.7771 63.4327 54.4364C62.5619 54.9958 61.2005 55.855 60.3997 56.6043V61.4295H60.4097ZM60.4097 56.6043V61.4295C59.8792 61.8591 59.3787 62.2887 58.8181 62.6383C57.8071 63.2677 56.626 63.6373 55.3147 64.2168C54.0034 64.7962 52.5519 65.5954 51.591 66.2947C50.62 67.004 50.1295 67.6234 49.7392 67.8932C49.3388 68.1629 49.0385 68.093 49.2987 67.7433C49.559 67.4036 50.3898 66.7942 50.7702 66.3047C51.1506 65.8252 51.0905 65.4655 51.1506 65.1958C51.2206 64.9261 51.4108 64.7363 52.3718 63.9071C53.3327 63.0779 55.0444 61.5993 56.2556 60.8801C57.4668 60.1608 58.1575 60.1907 58.698 59.9909C59.2386 59.7911 59.6189 59.3516 59.649 58.8521C59.679 58.3525 59.3687 57.7831 60.0494 56.9739C60.1495 56.854 60.2696 56.7341 60.4097 56.6043ZM60.4097 62.4285C60.3497 62.4485 60.2896 62.4685 60.2396 62.4985C59.6189 62.7982 59.0784 63.6274 58.1575 64.2567C57.2466 64.8861 55.9553 65.3257 54.8642 65.9451C53.7631 66.5645 52.8522 67.3637 51.8212 68.093C50.7902 68.8222 49.6291 69.4716 48.8283 70.131C48.0275 70.7903 47.567 71.4696 47.3368 71.9292C47.1066 72.3987 47.1066 72.6585 47.3168 72.6784C47.527 72.6984 47.9374 72.4786 47.7772 72.6984C47.6171 72.9182 46.8763 73.5676 46.4359 74.0871C46.0055 74.6066 45.8653 74.9962 46.0455 75.0761C46.2157 75.156 46.6962 74.9162 47.2567 74.4567C47.8073 73.9971 48.4479 73.3278 49.4789 72.5186C50.5099 71.7194 51.9514 70.7803 52.8723 70.111C53.7932 69.4416 54.2136 69.022 54.4939 68.6524C54.7741 68.2828 54.9243 67.9531 55.4448 67.8732C55.9553 67.7833 56.8262 67.9431 57.8672 67.5935C58.678 67.3237 59.5989 66.7443 60.4197 66.2847V62.4185L60.4097 62.4285ZM60.4097 68.6824V91.3101C60.2696 91.3401 60.1194 91.37 59.9893 91.42C58.8582 91.7896 57.9473 92.7887 57.0464 92.9585C56.1555 93.1283 55.2846 92.479 54.604 92.2891C53.9233 92.0993 53.4528 92.3591 52.9724 92.4889C52.4919 92.6188 52.0114 92.6188 51.7712 92.7687C51.5309 92.9185 51.5309 93.2282 51.9914 93.5079C52.4518 93.7877 53.3628 94.0474 53.3828 94.1573C53.4028 94.2672 52.5319 94.2272 51.581 94.4171C50.62 94.6169 49.579 95.0464 49.1185 95.0464C48.6581 95.0464 48.7882 94.6169 47.9674 94.477C47.1366 94.3471 45.3548 94.517 44.0235 95.0864C42.6922 95.6558 41.8213 96.6049 40.7603 96.9945C39.6892 97.3841 38.428 97.2143 36.9265 98.1034C35.425 98.9925 33.6833 100.951 32.402 101.97C31.1207 102.989 30.2899 103.079 29.7894 103.428C29.2889 103.778 29.1188 104.387 28.7884 105.226C28.4581 106.076 27.9876 107.165 27.5272 107.794C27.0667 108.423 26.6363 108.593 26.286 108.993C25.9356 109.382 25.6754 109.992 25.285 110.122C24.8946 110.251 24.3741 109.902 23.9136 109.992C23.4531 110.082 23.0628 110.601 23.1529 111.101C23.2429 111.6 23.8035 112.08 24.354 112.14C24.8946 112.21 25.4251 111.86 25.8755 111.75C26.336 111.64 26.7264 111.77 26.5462 112.359C26.376 112.949 25.6353 113.988 24.9146 114.487C24.1939 114.987 23.5032 114.947 22.8726 115.137C22.242 115.336 21.6714 115.766 21.5212 116.286C21.3711 116.805 21.6313 117.414 21.321 118.084C21.0207 118.753 20.1499 119.492 19.9096 120.192C19.6694 120.891 20.0598 121.54 19.5193 122.489C18.9787 123.448 17.4973 124.707 16.4963 125.966C15.4953 127.225 14.9748 128.484 13.8837 130.352C12.7926 132.22 11.141 134.697 10.2701 135.587C9.39924 136.476 9.30915 135.786 10.12 134.068C10.9207 132.35 12.6224 129.612 13.6234 127.664C14.6244 125.706 14.9247 124.537 15.6254 123.578C16.3261 122.619 17.4072 121.88 18.1679 120.821C18.9287 119.752 19.3691 118.363 19.0588 117.844C18.7585 117.325 17.7075 117.674 16.6464 118.623C15.5754 119.582 14.4943 121.141 13.7536 121.9C13.0128 122.659 12.6224 122.619 12.1019 123.049C11.5814 123.478 10.9308 124.398 10.2701 124.747C9.61946 125.097 8.96882 124.877 8.30816 125.117C7.65752 125.357 7.00687 126.046 6.63651 126.226C6.26614 126.396 6.17605 126.056 6.48636 125.596C6.78666 125.137 7.48735 124.577 7.85772 123.988C8.22808 123.399 8.26812 122.789 8.7486 121.79C9.22907 120.791 10.14 119.402 10.4503 118.813C10.7506 118.224 10.4503 118.443 9.74959 119.223C9.04889 120.002 7.96782 121.351 6.89676 122.499C5.8257 123.648 4.78467 124.607 4.15405 124.957C3.52343 125.307 3.30321 125.047 3.35326 124.627C3.3933 124.218 3.7036 123.648 4.44434 122.909C5.18507 122.17 6.35623 121.261 7.22709 120.282C8.09795 119.303 8.66852 118.264 8.63849 117.784C8.61847 117.305 8.00786 117.394 7.06693 118.064C6.13601 118.733 4.86475 120.002 3.89379 120.801C2.91282 121.6 2.22214 121.95 2.2822 121.76C2.35227 121.56 3.17308 120.831 3.45336 120.332C3.73363 119.832 3.47338 119.572 3.62353 118.963C3.77367 118.353 4.34424 117.394 5.19508 116.226C6.04592 115.057 7.17704 113.658 8.0479 112.289C8.91877 110.921 9.52937 109.572 10.16 108.643C10.7906 107.714 11.4413 107.184 12.4623 106.365C13.4833 105.536 14.8747 104.407 17.9677 101.8C21.0608 99.1924 25.8455 95.1064 29.0887 92.3691C32.3319 89.6318 34.0336 88.2431 35.0046 87.2241C35.9856 86.2051 36.2458 85.5558 37.6072 84.2271C38.9685 82.8984 41.4309 80.9003 43.1026 79.5117C44.7743 78.1231 45.6751 77.3438 46.576 76.8743C47.4769 76.4048 48.3978 76.2549 49.3087 75.7155C50.2196 75.176 51.1405 74.2369 52.7121 73.2179C54.2937 72.1989 56.5359 71.09 58.3277 70.0011C59.0784 69.5415 59.7591 69.092 60.3997 68.6624L60.4097 68.6824Z" fill="url(#paint0_linear_431_392)"/>
<path style="mix-blend-mode:multiply" opacity="0.32" d="M242.5 254C376.429 254 485 238.717 485 219.864C485 201.011 376.429 185.727 242.5 185.727C108.571 185.727 0 201.011 0 219.864C0 238.717 108.571 254 242.5 254Z" fill="url(#paint1_radial_431_392)"/>
</g>
<defs>
<linearGradient id="paint0_linear_431_392" x1="2.27856" y1="90.8065" x2="482.689" y2="90.8065" gradientUnits="userSpaceOnUse">
<stop stop-color="#5C3FFF"/>
<stop offset="1" stop-color="#E60000"/>
</linearGradient>
<radialGradient id="paint1_radial_431_392" cx="0" cy="0" r="1" gradientUnits="userSpaceOnUse" gradientTransform="translate(243.966 261.916) scale(242.752 33.7594)">
<stop/>
<stop offset="0.16" stop-color="#363636"/>
<stop offset="0.38" stop-color="#7D7D7D"/>
<stop offset="0.58" stop-color="#B5B5B5"/>
<stop offset="0.75" stop-color="#DDDDDD"/>
<stop offset="0.88" stop-color="#F5F5F5"/>
<stop offset="0.96" stop-color="white"/>
</radialGradient>
<clipPath id="clip0_431_392">
<rect width="485" height="254" fill="white"/>
</clipPath>
</defs>
</svg>
