<?xml version="1.0" encoding="UTF-8"?><svg id="Layer_1" xmlns="http://www.w3.org/2000/svg" width="441.14" height="56.98" viewBox="0 0 441.14 56.98"><path d="M434.4,52.98l.64.65-.03.03.03.03-4.99,3.08-.19-.07h-73.1v-1.28h72.23l-1.07-1.66h-31.58v-1.27h30.77l-1.06-1.66h-44.43v-1.27h43.6l-1.07-1.66h-27.81v-1.27h27l-1.07-1.66h-10.84l-.4.64-.77-.64h-53.51v-1.27h51.98l-2.02-1.66h-10.38v-1.27h8.86l-2.01-1.67h-21.56v-1.26h20.03l-2.01-1.67-1.43-1.22-.67,1.22-.35.62-1.18-.65.33-.53.43-.71,1-1.66h-41.02v-1.27h41.79l.43-.71h1.81l.85.71h12.5l1.03-1.66h-18.83v-1.27h19.63l1.03-1.66h-35.38v-1.27h36.18l1.03-1.66h-22.48v-1.28h23.27l1.03-1.65h-63.89v-1.27h64.68l1.03-1.66h-26.13v-1.27h26.93l.21-.33-.66-1.33h-41.19v-1.27h40.56l-.81-1.66h-1.11l-1.03.88-.74-.87h-22.16v-1.27h23.65l1.45-1.24.61,1.24h4.85l1.03-1.66h-71.18v-1.28h71.97l.04-.06,3.54,1.93-.64,1.06h.04l-.77,1.27h-.03l-1,1.66h.03l-.77,1.27h-.03l-1,1.67h.03l-.78,1.27h-.03l-.99,1.65h.02v.03l2.51,5.12,2.64-1.73.54.81-3.72,2.45-2.69-5.47-.05.08h-.04l-1,1.65h.04l-.77,1.28h-.03l-1,1.66h.03l-.76,1.27h-.05l-1,1.66h.04l-.77,1.27h-.02l-1.01,1.66h.04l-.23.37.61.9h-.03l1.1,1.66h.04l.86,1.27h-.05l1.12,1.67h.04l.85,1.26h-.04l1.12,1.67h.03l.85,1.27h-.04l1.12,1.66h.04l.85,1.27h-.04l1.12,1.66h.04l.85,1.27h-.04l1.11,1.66h.05l.85,1.27h-.04l1.11,1.66h.04l.75,1.12,1.04-.64h.02ZM425.06,14.36l1.04-1.66h-3.44l.81,1.66h1.59ZM424.18,15.81l.1-.17h-.18l.08.17ZM421.45,43.7l-1.07-1.66h-7.2l-1,1.66h9.27ZM419.57,40.77l-1.05-1.67h-3.56l-1,1.67h5.61ZM417.69,37.84l-1.01-1.58-.95,1.58h1.96ZM412.31,34.9l1.03-1.66h-10.17l2,1.66h7.14ZM410.49,37.84l1.03-1.67h-4.81l2,1.67h1.78Z" style="fill:#fbbd3e;"/><path d="M28.72,21.44c0,3.26-.85,6.03-2.56,8.31s-4.13,3.86-7.26,4.76c-1.75.5-4.98.75-9.69.75v20.51H0V7.42h9.76c4.23,0,7.38.28,9.46.85,3.33.88,5.83,2.65,7.49,5.32,1.34,2.19,2,4.8,2,7.84h.01ZM19.78,21.44c0-1.87-.72-3.23-2.16-4.09-1.07-.64-3.01-.96-5.83-.96h-2.59v9.92h2.92c3.65,0,5.95-.71,6.91-2.14.5-.75.75-1.66.75-2.74h0Z" style="fill:#656565;"/><path d="M80.38,55.76h-9.53l-3.78-9.96h-19.74l-3.95,9.96h-9.53L52.47,7.42h9.33l18.59,48.34h-.01ZM63.61,36.87l-6.42-16.66-6.45,16.66h12.87Z" style="fill:#656565;"/><path d="M119.13,55.76h-10.02l-10.91-20.51h-.85v20.51h-9.2V7.42h9.76c4.29,0,7.45.27,9.46.82,3.26.86,5.74,2.64,7.43,5.36,1.38,2.22,2.07,4.84,2.07,7.86,0,6.36-3.07,10.64-9.2,12.83l11.47,21.46h-.01ZM107.92,21.34c0-2.22-1-3.7-3.01-4.45-.92-.33-2.6-.49-5.04-.49h-2.52v9.92h2.88c2.42,0,4.17-.24,5.24-.73,1.64-.75,2.46-2.16,2.46-4.25h0Z" style="fill:#656565;"/><path d="M161.75,55.76h-10.92l-14.94-21.46v21.46h-9.27V7.42h9.27v16.63l13.13-16.63h11.09l-16.91,21.56,18.56,26.78h0Z" style="fill:#656565;"/><path d="M217.46,31.58c0,7.12-2.45,13.13-7.35,18.04-4.9,4.91-10.91,7.36-18.03,7.36s-13.16-2.42-18.11-7.26c-4.95-4.84-7.43-10.81-7.43-17.91,0-4.6,1.11-8.88,3.32-12.85s5.29-7.1,9.23-9.4c3.88-2.23,8.07-3.35,12.59-3.35,7.27,0,13.38,2.4,18.31,7.2,4.97,4.86,7.46,10.92,7.46,18.17h0ZM212.49,31.58c0-7.96-3.41-13.9-10.22-17.82-3.25-1.86-6.7-2.79-10.35-2.79s-7.03.93-10.21,2.79c-3.19,1.86-5.68,4.36-7.47,7.51s-2.69,6.66-2.69,10.53c0,5.71,1.96,10.54,5.88,14.5s8.75,5.94,14.5,5.94c3.74,0,7.21-.9,10.39-2.69,3.19-1.79,5.68-4.28,7.48-7.45,1.8-3.17,2.69-6.68,2.69-10.53h0Z" style="fill:#656565;"/><path d="M265.14,55.76h-1.08l-31.91-36.54v36.54h-4.96V7.42h1.05l32.11,37V7.42h4.8v48.34h-.01Z" style="fill:#656565;"/><path d="M281.08,55.76h-4.8V7.42h4.8v48.34Z" style="fill:#656565;"/><path d="M337.18,47.35c-5.04,6.42-12.07,9.63-21.1,9.63-8.48,0-15.15-2.81-20.01-8.45-4.1-4.73-6.15-10.47-6.15-17.22,0-7.3,2.54-13.33,7.62-18.11,4.97-4.67,11.13-7,18.47-7,9.2,0,16.26,3.4,21.16,10.19l-3.81,2.92c-4.28-5.54-10.04-8.31-17.3-8.31-3.77,0-7.29.9-10.56,2.69-3.36,1.82-5.95,4.3-7.78,7.46s-2.75,6.69-2.75,10.58c0,6.04,2.06,11,6.18,14.9,4.06,3.83,9.12,5.74,15.2,5.74,6.78,0,12.44-2.64,17-7.92l3.81,2.89h.02Z" style="fill:#656565;"/><path d="M432.68.61h-1.67V.01h4.07v.6h-1.68v4.9h-.72V.61Z" style="fill:#5e646f;"/><path d="M440.32,3.09c-.04-.77-.09-1.69-.08-2.38h-.02c-.19.65-.42,1.33-.69,2.09l-.97,2.67h-.54l-.89-2.62c-.26-.78-.48-1.49-.64-2.14h-.02c-.02.69-.06,1.61-.11,2.43l-.15,2.36h-.68L435.91,0h.91l.94,2.66c.23.68.42,1.28.55,1.85h.02c.14-.56.33-1.16.58-1.85l.98-2.66h.91l.34,5.5h-.69l-.14-2.42h.01Z" style="fill:#5e646f;"/></svg>