<svg width="50" height="42" viewBox="0 0 50 42" fill="none" xmlns="http://www.w3.org/2000/svg">
<path d="M4.99994 40.0001C3.62494 40.0001 2.44786 39.5105 1.46869 38.5314C0.489522 37.5522 -6.10352e-05 36.3751 -6.10352e-05 35.0001V5.00012C-6.10352e-05 3.62512 0.489522 2.44804 1.46869 1.46887C2.44786 0.489705 3.62494 0.00012207 4.99994 0.00012207H44.9999C46.3749 0.00012207 47.552 0.489705 48.5312 1.46887C49.5104 2.44804 49.9999 3.62512 49.9999 5.00012V18.3126C49.2499 17.771 48.4583 17.2918 47.6249 16.8751C46.7916 16.4585 45.9166 16.1043 44.9999 15.8126V10.0001H4.99994V20.0001H27.4999C25.8749 21.5835 24.5937 23.448 23.6562 25.5939C22.7187 27.7397 22.2499 30.0418 22.2499 32.5001C22.2499 33.8335 22.3958 35.1355 22.6874 36.4064C22.9791 37.6772 23.3958 38.8751 23.9374 40.0001H4.99994ZM39.7499 41.2501L30.9999 32.5001C30.4583 31.9585 30.0729 31.3751 29.8437 30.7501C29.6145 30.1251 29.4999 29.5001 29.4999 28.8751C29.4999 27.5418 29.9791 26.3543 30.9374 25.3126C31.8958 24.271 33.1249 23.7501 34.6249 23.7501C35.7916 23.7501 36.7083 24.021 37.3749 24.5626C38.0416 25.1043 38.8333 25.8335 39.7499 26.7501C40.5833 25.9168 41.3437 25.2085 42.0312 24.6251C42.7187 24.0418 43.6666 23.7501 44.8749 23.7501C46.4166 23.7501 47.6562 24.2814 48.5937 25.3439C49.5312 26.4064 49.9999 27.6043 49.9999 28.9376C49.9999 29.5626 49.8749 30.1876 49.6249 30.8126C49.3749 31.4376 48.9999 32.0001 48.4999 32.5001L39.7499 41.2501Z" fill="#022E48"/>
</svg>
