<svg width="50" height="48" viewBox="0 0 50 48" fill="none" xmlns="http://www.w3.org/2000/svg">
<path d="M12.5 10V5C12.5 3.625 12.9896 2.44792 13.9688 1.46875C14.9479 0.489583 16.125 0 17.5 0H32.5C33.875 0 35.0521 0.489583 36.0312 1.46875C37.0104 2.44792 37.5 3.625 37.5 5V10H45C46.375 10 47.5521 10.4896 48.5312 11.4688C49.5104 12.4479 50 13.625 50 15V42.5C50 43.875 49.5104 45.0521 48.5312 46.0312C47.5521 47.0104 46.375 47.5 45 47.5H5C3.625 47.5 2.44792 47.0104 1.46875 46.0312C0.489583 45.0521 0 43.875 0 42.5V15C0 13.625 0.489583 12.4479 1.46875 11.4688C2.44792 10.4896 3.625 10 5 10H12.5ZM17.5 10H32.5V5H17.5V10ZM5 37.5H45V30H5V37.5Z" fill="#022E48"/>
</svg>
